<svg version="1.1" xmlns="http://www.w3.org/2000/svg" width="696" height="640" viewBox="0 0 696 640" class="hcharts-root"><defs><clipPath id="hcharts-m9kea9s-1-"><rect x="0" y="0" width="676" height="615" fill="none"></rect></clipPath></defs><rect fill="#fff" x="0" y="0" width="696" height="640" rx="0" ry="0" class="hcharts-background"></rect><rect fill="none" x="10" y="10" width="676" height="615" class="hcharts-plot-background"></rect><rect fill="none" data-z-index="1" x="10" y="10" width="676" height="615" class="hcharts-plot-border"></rect><g data-z-index="3" style="pointer-events: auto;" class="hcharts-series-group"><g data-z-index="0.1" transform="translate(10,10) scale(1 1)" stroke-width="0.3" style="cursor:pointer;" clip-path="url(#hcharts-m9kea9s-1-)" class="hcharts-series hcharts-series-0 hcharts-map-series hcharts-tracker hcharts-series-hover"><g transform="translate(0,0) scale(1 1)"><path d="M 566.7548237948963 36.929234928026126 L 552.7898610817242 49.28059804848559 552.7786774253585 49.310605320446086 546.0367983408754 47.93495681284443 543.6378237355786 60.03455671451977 526.4602396232381 57.83785179787405 517.9638081497501 69.15692942693234 510.0438106429936 67.26653238481292 505.7444016801379 60.666846259587054 499.76836657288857 52.47538346195745 500.16364349748346 44.712728407109466 495.29630634450285 41.878763433198024 487.9796726289765 34.65280610214923 494.4753030651471 34.631432205069196 494.3196089018395 35.28947169635985 503.6185787297067 27.771906976043685 505.2264178118902 29.242221656471077 522.8598702575525 24.018945477224445 526.9190615805262 11.094782846670686 531.854579268021 6.998451897618308 555.0722360440091 8.93624245640103 560.0329228976584 0 568.6221728658513 28.110487418866946 566.7548237948963 36.929234928026126 Z" stroke="#000" stroke-width="inherit" opacity="1" data-const-id="1" fill="#fff" class="hcharts-point"></path><path d="M 563.5419394158553 51.66430797082105 L 556.5352936577037 53.36520464127119 555.2429510836209 51.15659097069308 552.5824245550688 51.15260946019371 551.7676813127682 51.39820853909061 551.8321146026826 51.08469957420029 552.5158740830827 50.015769960174715 552.7898610817242 49.28059804848559 566.7548237948963 36.929234928026126 563.5419394158553 51.66430797082105 Z" stroke="#000" stroke-width="inherit" opacity="1" data-const-id="2" fill="#fff" class="hcharts-point"></path><path d="M 561.6188982489246 58.35871126617874 L 557.9517908152843 79.30798144284057 549.0851512296895 78.98990532366517 548.9027675766936 78.36337298725658 548.1940211025571 69.99832173425898 553.5195555284296 62.853655073828776 550.8028423291834 55.496238499205326 551.1379848215852 54.51499127012502 551.7582993790666 55.02950196727201 552.7808266157015 55.36522201100435 553.527953668867 57.372002819041285 556.4590254475604 58.04512768545111 556.5915849352591 60.251443902674204 561.6188982489246 58.35871126617874 Z" stroke="#000" stroke-width="inherit" opacity="1" data-const-id="3" fill="#fff" class="hcharts-point"></path><path d="M 561.6188982489246 58.35871126617874 L 556.5915849352591 60.251443902674204 556.4590254475604 58.04512768545111 553.527953668867 57.372002819041285 552.7808266157015 55.36522201100435 551.7582993790666 55.02950196727201 551.1379848215852 54.51499127012502 551.1452226183463 54.493801337678505 551.6947309480836 51.753170388200296 551.7676813127682 51.39820853909061 552.5824245550688 51.15260946019371 555.2429510836209 51.15659097069308 556.5352936577037 53.36520464127119 563.5419394158553 51.66430797082105 561.6188982489246 58.35871126617874 Z" stroke="#000" stroke-width="inherit" opacity="1" data-const-id="4" fill="#fff" class="hcharts-point"></path><path d="M 552.7786774253585 49.310605320446086 L 552.5158740830827 50.015769960174715 551.8321146026826 51.08469957420029 551.6947309480836 51.753170388200296 551.1452226183463 54.493801337678505 550.8028423291834 55.496238499205326 553.5195555284296 62.853655073828776 548.1940211025571 69.99832173425898 548.9027675766936 78.36337298725658 548.7784054433511 77.93618276214988 536.9717368569975 74.57955712156586 533.3369548977962 83.00254657017159 519.720045850177 85.87762162577532 519.7417044234412 78.19964996989557 505.17773790489724 71.69306100728518 500.9203101891787 64.04165607381904 505.7444016801379 60.666846259587054 510.0438106429936 67.26653238481292 517.9638081497501 69.15692942693234 526.4602396232381 57.83785179787405 543.6378237355786 60.03455671451977 546.0367983408754 47.93495681284443 552.7786774253585 49.310605320446086 Z" stroke="#000" stroke-width="inherit" opacity="1" data-const-id="5" fill="#fff" class="hcharts-point"></path><path d="M 548.7784054433511 77.93618276214988 L 549.0851512296895 78.98990532366517 557.9517908152843 79.30798144284057 558.2580427118647 89.29227896657447 545.2919486183455 126.79396372630032 530.3267743178831 146.59063096577728 515.2949914748451 147.8879711587496 505.4918915727716 137.16032865100465 495.0989201216036 138.99974079554232 494.49534443647156 139.83114320854762 490.1543056870609 134.98278857796538 500.4731205819888 124.41645646753848 502.51317862985206 117.18758341550455 488.71566523784526 104.524578175805 500.3336099925101 96.81460913920814 501.36719756083664 91.99480363093173 480.4916565084537 80.01857205597767 481.90509047242756 74.42707265402417 500.9203101891787 64.04165607381904 505.17773790489724 71.69306100728518 519.7417044234412 78.19964996989557 519.720045850177 85.87762162577532 533.3369548977962 83.00254657017159 536.9717368569975 74.57955712156586 548.7784054433511 77.93618276214988 Z" stroke="#000" stroke-width="inherit" opacity="1" data-const-id="6" fill="#fff" class="hcharts-point"></path><path d="M 494.6160731579725 34.03650824010062 L 494.4753030651471 34.631432205069196 487.9796726289765 34.65280610214923 495.29630634450285 41.878763433198024 500.16364349748346 44.712728407109466 499.76836657288857 52.47538346195745 505.7444016801379 60.666846259587054 500.9203101891787 64.04165607381904 481.90509047242756 74.42707265402417 480.4916565084537 80.01857205597767 472.61928050278397 77.46184389226497 468.3895828197353 100.11985608136058 449.9946494671877 87.81006332950302 440.75475340388664 92.27607769091841 430.08518281480025 90.4566567091547 428.0756614211809 90.52858854822719 428.0600515987084 90.71783939188813 428.21811057206816 86.13229963028674 428.77410402950295 84.83623078042345 431.5905639150071 83.89551166524636 432.2886484021995 75.21112119397935 425.6582422814696 69.1567650804298 427.6789005125015 61.383942184400304 426.47227298158174 60.04941265036045 436.1522106824254 61.01106137505906 444.4001334714439 46.73400542904739 452.53386770623206 48.93109447737222 466.1998493451358 41.10484299122263 465.80745731500764 25.705998517656298 479.1103445230399 26.897144277209154 481.2529328770466 32.703977908238784 494.6160731579725 34.03650824010062 Z" stroke="#000" stroke-width="inherit" opacity="1" data-const-id="7" fill="#fff" class="hcharts-point"></path><path d="M 281.10473927824046 204.56624787084127 L 280.43559207995247 206.50870726219924 270.5967591362809 212.7362350445187 273.5703277316327 197.78367148799381 265.6511111060299 193.4945796844996 269.8932701150287 187.35011908605986 269.69309836735687 183.76295948119136 269.0998967506498 181.83912702731214 268.77696773183595 181.12976513888904 269.1748679051125 180.9835810188304 271.94149303721315 173.10542841838253 280.6370338917315 161.9719077878892 277.4879197079458 157.63797134172873 291.48362014562855 143.4515191638899 300.2036014961383 137.63586169691698 300.39805301800567 121.0666811700983 307.38718328120507 118.85650480514809 320.42016517249704 127.7961383756866 325.1468270839073 137.59831056836148 335.71449019910204 146.11413198802654 342.60907309616977 145.6795079237245 351.8082421674601 153.48662147826997 376.6795976513782 155.56354519760524 385.975297703477 177.55459831745918 386.75369359438207 184.781287301494 377.4403704531303 188.54850616133652 366.34973727035265 197.66662629550322 356.441939712635 195.04081525910144 333.77328122058384 182.0553266961911 333.85376767033165 181.2647310250521 331.9047074479642 178.09254355953865 316.62944784458494 181.16626904659006 303.31519826757943 187.64673010137153 297.23160001641213 196.59483515720532 281.10473927824046 204.56624787084127 Z" stroke="#000" stroke-width="inherit" opacity="1" data-const-id="10" fill="#fff" class="hcharts-point"></path><path d="M 430.08518281480025 90.4566567091547 L 433.03217497286704 103.82445350868238 422.43038822120405 119.75977537398501 433.904762188024 123.37643585570191 449.8059503533874 139.4883717072626 441.66686883392083 156.6839652266317 446.93141491500296 166.17307403421992 433.74216925647283 170.626776127801 433.3267448409171 170.93067097951646 428.81585207135225 172.74883453265738 413.2435141562704 167.81484204464297 408.42565814875337 173.71146945636266 390.81097918303897 174.24327002274288 385.975297703477 177.55459831745918 376.6795976513782 155.56354519760524 380.6469886119289 151.9048177292407 369.45543555735964 132.07437878411122 352.29921254685604 120.79526797057481 351.39654955083483 105.29711602379746 358.7405357195524 102.84124803549287 364.6199227155674 106.73232882392956 373.2349997817597 100.41928250120164 384.1993945070629 108.95609865589363 377.4550302613784 119.16905573833955 386.6951215627203 123.13717461654888 395.60604550333125 115.88192189196863 406.2498428612247 98.19669851142808 415.50411798912097 100.61219814634246 428.0378333193833 90.98721545194825 428.0756614211809 90.52858854822719 430.08518281480025 90.4566567091547 Z" stroke="#000" stroke-width="inherit" opacity="1" data-const-id="11" fill="#fff" class="hcharts-point"></path><path d="M 480.4916565084537 80.01857205597767 L 501.36719756083664 91.99480363093173 500.3336099925101 96.81460913920814 488.71566523784526 104.524578175805 502.51317862985206 117.18758341550455 500.4731205819888 124.41645646753848 490.1543056870609 134.98278857796538 494.49534443647156 139.83114320854762 494.6775137822065 139.58020234530252 495.73238398522204 140.22531487596737 496.8474210040845 140.40565993651057 494.2566300122684 144.79495495349312 490.5426882656312 144.98624340679063 485.7311179234963 151.02543580997468 490.2252005131412 166.1669773835028 483.92908854144935 169.4690521010691 475.3657191449115 159.83189212891426 446.93141491500296 166.17307403421992 441.66686883392083 156.6839652266317 449.8059503533874 139.4883717072626 433.904762188024 123.37643585570191 422.43038822120405 119.75977537398501 433.03217497286704 103.82445350868238 430.08518281480025 90.4566567091547 440.75475340388664 92.27607769091841 449.9946494671877 87.81006332950302 468.3895828197353 100.11985608136058 472.61928050278397 77.46184389226497 480.4916565084537 80.01857205597767 Z" stroke="#000" stroke-width="inherit" opacity="1" data-const-id="12" fill="#fff" class="hcharts-point"></path><path d="M 433.3267448409171 170.93067097951646 L 433.39373186956914 170.8816667009927 433.4406555461325 171.77732935957366 431.7776178741018 175.1024720634393 431.79038122162564 177.1281061445487 442.8421978872563 180.01067977003245 440.4809004114232 192.1741269731539 433.18085721230557 190.19167026600581 432.3341207994219 209.0393851691258 439.4183364813351 219.99851502569655 425.5496796686922 216.84772109272387 418.43728381982396 222.81090535946768 409.0755046745772 224.1076097090249 403.72468002851616 230.79537678703798 394.203394224635 236.77049499797127 384.02153241984996 236.57806895122013 378.5896033369431 240.37836844203392 377.65480513241295 249.03545526524732 367.4284181910313 247.36512524224366 360.05872535846333 242.22384931568624 355.47963486704816 242.81112648127902 356.2139031687349 220.89723541635345 341.51649882405 222.28993136298442 340.1521827605906 221.91506555573383 331.6661711349292 215.8659277233077 320.2293622613164 197.93425674359239 333.8336106345771 181.46272255444273 333.77328122058384 182.0553266961911 356.441939712635 195.04081525910144 366.34973727035265 197.66662629550322 377.4403704531303 188.54850616133652 386.75369359438207 184.781287301494 385.975297703477 177.55459831745918 390.81097918303897 174.24327002274288 408.42565814875337 173.71146945636266 413.2435141562704 167.81484204464297 428.81585207135225 172.74883453265738 433.3267448409171 170.93067097951646 Z" stroke="#000" stroke-width="inherit" opacity="1" data-const-id="14" fill="#fff" class="hcharts-point"></path><path d="M 340.1521827605906 221.91506555573383 L 339.7573612799782 221.8066068003927 323.39212679127917 227.40713113220957 306.343767223317 224.78414076901535 309.171560819339 208.57137806576097 297.68878226708284 208.45754509003373 300.40566567406256 221.80058862729973 295.322010398178 227.94256072780655 288.1810876837625 227.35913253386437 283.4560757812395 220.39696911802233 276.7859656550977 222.98015660346155 276.3446628171522 221.58816924822779 280.6197534105063 209.2657335652537 280.7067627375528 205.95248487308348 280.70323088202554 205.73173437562232 281.10473927824046 204.56624787084127 297.23160001641213 196.59483515720532 303.31519826757943 187.64673010137153 316.62944784458494 181.16626904659006 331.9047074479642 178.09254355953865 333.85376767033165 181.2647310250521 333.8336106345771 181.46272255444273 320.2293622613164 197.93425674359239 331.6661711349292 215.8659277233077 340.1521827605906 221.91506555573383 Z" stroke="#000" stroke-width="inherit" opacity="1" data-const-id="15" fill="#fff" class="hcharts-point"></path><path d="M 339.7573612799782 221.8066068003927 L 341.51649882405 222.28993136298442 356.2139031687349 220.89723541635345 355.47963486704816 242.81112648127902 360.05872535846333 242.22384931568624 357.8087148434998 252.57460396709948 348.38601586486254 271.9045127128717 341.8476308960685 281.11401949801126 333.35217378229527 277.243285480761 324.40652592714 286.203246070619 323.88810218447816 285.77519118428614 308.57822406244463 277.193395322844 297.9193555819203 279.86557083547757 293.0897243144048 278.23584899359764 290.0751123822296 260.0182383477562 281.58002321363483 254.31442489207853 287.8825040291026 238.1492506969187 274.0190541509189 236.43454439572207 272.58535466199294 234.2515072273276 271.99765637226415 233.94488131850963 272.065926658586 233.70599016717875 277.16451308436854 224.1743552105687 276.7859656550977 222.98015660346155 283.4560757812395 220.39696911802233 288.1810876837625 227.35913253386437 295.322010398178 227.94256072780655 300.40566567406256 221.80058862729973 297.68878226708284 208.45754509003373 309.171560819339 208.57137806576097 306.343767223317 224.78414076901535 323.39212679127917 227.40713113220957 339.7573612799782 221.8066068003927 Z" stroke="#000" stroke-width="inherit" opacity="1" data-const-id="16" fill="#fff" class="hcharts-point"></path><path d="M 280.70323088202554 205.73173437562232 L 280.7067627375528 205.95248487308348 280.6197534105063 209.2657335652537 276.3446628171522 221.58816924822779 277.16451308436854 224.1743552105687 272.065926658586 233.70599016717875 271.86983615254235 234.3921646355071 265.9193547642337 236.10363842763303 264.59332278471277 249.5327251948058 257.67275167517084 268.8111466841037 243.9441184361871 273.87192460944607 240.85034077129396 279.2962730645659 225.93817574787005 273.72655841394777 225.74921276665034 273.08447035342067 230.57172668667687 258.86086040067477 223.28136923922307 251.83442665704862 213.30785547551855 247.72026115641054 226.79934644992034 237.86965487518884 226.45217785958243 230.0968353037799 240.33393683471803 228.87239985755988 244.3167301517665 224.3347830443783 241.61759373765383 202.22959050385708 249.58039831105486 182.1424497230353 268.6949552050336 181.1598971391273 268.77696773183595 181.12976513888904 269.0998967506498 181.83912702731214 269.69309836735687 183.76295948119136 269.8932701150287 187.35011908605986 265.6511111060299 193.4945796844996 273.5703277316327 197.78367148799381 270.5967591362809 212.7362350445187 280.43559207995247 206.50870726219924 280.70323088202554 205.73173437562232 Z" stroke="#000" stroke-width="inherit" opacity="1" data-const-id="18" fill="#fff" class="hcharts-point"></path><path d="M 224.79821481360233 311.27855085475375 L 229.489188664575 322.2048213386707 240.1939623737701 329.46153762315646 229.78463636531882 349.1439745060222 228.69780862968366 359.7591418537756 232.67919295926333 368.6352493649474 225.7787785303285 373.80365350749054 213.16036772826993 359.7364092449004 192.778921630225 373.95742149255074 182.68748596259059 371.38409094441806 175.34243502103882 361.62418741990206 175.6044617859167 333.0505709824813 180.4191541907582 328.063827915924 183.181446334163 312.20522835555164 176.74807314968132 308.0871870153837 174.15914010647654 302.0226425524092 154.99363633813303 294.5330875791859 159.81247402985977 284.59692274774227 167.90144672936043 282.6994908486539 167.23515041935903 282.2674103073117 177.17928987779757 280.7110268046647 178.98723534905042 286.72884831911426 188.15169728724564 285.29146435638467 197.57138251255157 289.22257100841455 198.3858815635533 301.3371490731978 209.94329148215598 302.7258560983871 212.57533987446885 308.7976668887869 224.79821481360233 311.27855085475375 Z" stroke="#000" stroke-width="inherit" opacity="1" data-const-id="21" fill="#fff" class="hcharts-point"></path><path d="M 284.1160257204433 323.42338916112647 L 290.51566057270304 334.71367989548 303.4469338829354 345.3025851867203 304.04928845360405 352.7318796922295 317.12035217553375 357.32852923110164 326.57394766558923 354.2800262568376 331.87962703197695 347.04885387933393 340.8338788843786 350.4161342748831 337.07422600665154 358.0927992266988 343.2608887215154 364.6702264822956 342.9791040143085 365.9346280055976 342.39327110138794 374.2429985162288 335.34447395810207 379.92545801128233 334.64447366758435 389.974895046759 324.6164083836889 389.2442763073453 322.3061733538457 379.99952487536655 308.93136990425023 379.4587939040573 296.5296996091504 390.2611067458338 279.06768427322845 393.3478551481441 271.9758837615374 378.2453446113539 261.95278166586417 375.8095053445665 245.48770404303903 385.26584049384104 237.6118546437865 381.76822828890545 223.387857830271 386.0499214306932 225.7787785303285 373.80365350749054 232.67919295926333 368.6352493649474 228.69780862968366 359.7591418537756 229.78463636531882 349.1439745060222 240.1939623737701 329.46153762315646 250.5344479755914 331.6716824955638 260.2808405376377 323.90924889075615 275.21258609090023 328.9309147232964 284.1160257204433 323.42338916112647 Z" stroke="#000" stroke-width="inherit" opacity="1" data-const-id="22" fill="#fff" class="hcharts-point"></path><path d="M 397.29512018769015 305.8162088510147 L 404.06267074236825 311.2699328896127 403.2351435118525 320.4033781534733 424.80800675876185 324.62585695255666 438.2376090884174 335.0468278934368 433.39753444303824 343.7273423739715 434.2607037026154 355.98109747686726 434.15872321249884 356.2446995052148 415.9092963843607 356.9426547654429 408.46233786429747 353.7855314402486 391.60171840696466 359.7460992313962 391.14003432274467 359.5293941225569 392.3603467131006 339.5392008018536 395.5502344927383 326.43776572859076 389.49374704889954 326.76225770307434 376.47653736939304 319.3888041460977 358.9254302145323 328.70635023057537 349.5745230679448 323.71510400427746 350.5062397641427 323.08548507436115 350.7106100268633 323.1150557652712 352.192912114889 323.09850651760166 353.664889469801 322.16576835961354 355.1534294094754 322.69929290147104 357.72533900561984 320.6551527829963 363.5173592884875 321.02812407519525 372.52575515917596 300.72985465075294 397.29512018769015 305.8162088510147 Z" stroke="#000" stroke-width="inherit" opacity="1" data-const-id="24" fill="#fff" class="hcharts-point"></path><path d="M 416.0947025178307 242.54892022308306 L 416.0970069603708 242.86487052156744 416.1063880314858 244.1511599146215 417.2344094405738 245.6132463906788 417.2543052495278 248.36927095763838 413.9070916698837 248.94435146445883 408.91593243685634 253.57424040416606 411.05139241055815 265.1295181534525 399.72635518125145 267.60473908911433 401.85164915746907 277.3180023563969 416.53026081601655 276.84021014953487 418.7204911042301 286.6163064354357 413.8612038176237 293.2197018246929 418.4962654114563 299.83663167953335 397.29512018769015 305.8162088510147 372.52575515917596 300.72985465075294 363.5173592884875 321.02812407519525 357.72533900561984 320.6551527829963 355.1534294094754 322.69929290147104 353.664889469801 322.16576835961354 352.192912114889 323.09850651760166 350.7106100268633 323.1150557652712 350.5062397641427 323.08548507436115 351.2147532945369 322.606759590861 346.6136739782007 317.889959899105 338.2445571871835 320.84955104214066 340.3031367717577 308.8323420782705 335.8546022660679 305.8867765720352 339.12521345128084 291.39377695089263 326.41797233831835 290.7320152347976 324.86582781041795 288.1602581909507 324.43737033195487 287.0744980527707 324.30358167619227 286.1182438335244 324.40652592714 286.203246070619 333.35217378229527 277.243285480761 341.8476308960685 281.11401949801126 348.38601586486254 271.9045127128717 357.8087148434998 252.57460396709948 360.05872535846333 242.22384931568624 367.4284181910313 247.36512524224366 377.65480513241295 249.03545526524732 378.5896033369431 240.37836844203392 384.02153241984996 236.57806895122013 394.203394224635 236.77049499797127 403.72468002851616 230.79537678703798 415.8241585906984 242.6995207252799 416.0947025178307 242.54892022308306 Z" stroke="#000" stroke-width="inherit" opacity="1" data-const-id="25" fill="#fff" class="hcharts-point"></path><path d="M 502.7833975755105 223.98113271308284 L 508.95130603433483 240.25672308804332 489.83920692644847 255.7197240431923 484.8260230081404 263.0440509922405 469.19632319216953 270.7048207641458 464.00777825238464 278.4854661600787 442.50817753038297 293.83497501785814 432.44321739391563 295.1677831070634 418.4962654114563 299.83663167953335 413.8612038176237 293.2197018246929 418.7204911042301 286.6163064354357 416.53026081601655 276.84021014953487 401.85164915746907 277.3180023563969 399.72635518125145 267.60473908911433 411.05139241055815 265.1295181534525 408.91593243685634 253.57424040416606 413.9070916698837 248.94435146445883 417.2543052495278 248.36927095763838 417.2344094405738 245.6132463906788 416.1063880314858 244.1511599146215 416.0970069603708 242.86487052156744 416.0947025178307 242.54892022308306 416.92001346734344 242.08954592975334 437.4914151324202 245.55068701659607 450.70619718861 241.21388510326082 465.4652242017919 223.95034799709967 476.09124553820703 222.94584321899686 476.0500004598979 231.73908628564305 489.0579230454888 231.11069902201686 502.7833975755105 223.98113271308284 Z" stroke="#000" stroke-width="inherit" opacity="1" data-const-id="27" fill="#fff" class="hcharts-point"></path><path d="M 501.405692458365 287.80940054430476 L 501.0894423412237 297.2112583218951 509.6178716420738 300.13836758864943 512.9111559152293 306.82604140880676 514.2590587622703 344.3216157738167 516.2592036368031 367.0086290221501 507.11371496566903 369.1347363663607 486.8013068170532 365.7211329203936 474.4773785780227 359.8276237578702 470.8727862398891 353.8771253051959 474.801430197541 330.6255755669559 472.96797116279225 315.7303099181639 459.51683416627975 309.84455955137514 459.3894658620912 309.9901320887791 448.5831058048489 301.3037906382182 453.7014412285703 294.91564328559474 470.17456790774384 302.4170714281944 475.3965756641929 291.04745553052453 496.5002429436852 285.94101783286476 501.405692458365 287.80940054430476 Z" stroke="#000" stroke-width="inherit" opacity="1" data-const-id="29" fill="#fff" class="hcharts-point"></path><path d="M 474.4773785780227 359.8276237578702 L 461.1551697665015 363.5004654393873 448.55851302575337 372.85231960689674 443.3166159235335 383.83435504446925 434.7980063100558 377.46346136934875 435.1891380493241 377.27438337485967 431.3473103106847 365.13486770214456 434.0010675351984 356.65222657054244 434.2607037026154 355.98109747686726 433.39753444303824 343.7273423739715 438.2376090884174 335.0468278934368 424.80800675876185 324.62585695255666 403.2351435118525 320.4033781534733 404.06267074236825 311.2699328896127 397.29512018769015 305.8162088510147 418.4962654114563 299.83663167953335 432.44321739391563 295.1677831070634 438.94487138643547 304.1169052072146 440.8041504669113 315.3586731815131 446.6276840035354 319.2927600399649 456.5547794063664 316.5577836814178 459.0158747193934 310.4171364687255 459.51683416627975 309.84455955137514 472.96797116279225 315.7303099181639 474.801430197541 330.6255755669559 470.8727862398891 353.8771253051959 474.4773785780227 359.8276237578702 Z" stroke="#000" stroke-width="inherit" opacity="1" data-const-id="30" fill="#fff" class="hcharts-point"></path><path d="M 390.5989479313364 359.2754416666875 L 391.60171840696466 359.7460992313962 408.46233786429747 353.7855314402486 415.9092963843607 356.9426547654429 434.15872321249884 356.2446995052148 434.0010675351984 356.65222657054244 431.3473103106847 365.13486770214456 435.1891380493241 377.27438337485967 435.0880190595122 377.3232643032031 425.13240572527906 379.62901923224285 419.54411839320784 375.38340341824403 413.1895961490164 383.982456514936 409.81558720360647 397.1264539816681 417.81861770799406 404.7489634849234 408.31524887368965 408.93782018309633 403.43478496887536 415.12665580085735 404.69379870182604 427.1634505953557 392.9275385300136 423.67991482674347 390.6062082735102 431.4883101488165 397.49377313579356 445.17117626540096 384.906508011264 444.63736867067564 374.7373156832941 451.61230707347875 366.2817944091288 446.1361216461612 352.1202941087293 442.4156019826907 336.33074059759025 427.3676243856961 321.86631413935737 423.8384555977017 321.4773557170497 424.112847668517 319.2209449765613 415.627915524929 323.34998708513183 413.1979332192511 324.987531510408 413.0517439065014 326.64205813708986 413.0305617188014 326.8417606922091 413.22067317998875 340.6639969423005 414.69209487424007 341.34480820629295 408.1963528276791 356.8926536002946 403.1740716346467 356.8454750367614 388.3216576414452 349.9464243487091 379.63472451038996 351.7972861638798 375.7322957136314 349.03536196489176 369.3755270817082 348.73507857434515 364.3335665665511 349.40528915402547 364.15798847174847 356.8298267681438 353.90408771806034 371.0802037176967 350.186869503748 390.5989479313364 359.2754416666875 Z" stroke="#000" stroke-width="inherit" opacity="1" data-const-id="31" fill="#fff" class="hcharts-point"></path><path d="M 326.8417606922091 413.22067317998875 L 326.2916447692297 412.6969915978436 316.5156058012347 411.4120612213222 312.41956034518 407.0898276146566 308.49337796990517 406.01808964984224 305.8067462189257 403.4286257320961 304.15576267529804 402.7012977333982 304.1236017922644 402.67376301060335 304.3102835855601 402.44900528144615 316.84535127899306 402.1641625330157 324.6164083836889 389.2442763073453 334.64447366758435 389.974895046759 335.34447395810207 379.92545801128233 342.39327110138794 374.2429985162288 342.9791040143085 365.9346280055976 343.02011176851175 365.75061171145217 343.9165672113139 365.8207723059443 346.11421183735763 365.7953192695254 347.56663845085745 364.69033017101026 349.0255571523571 364.12955159951326 349.2676796938982 364.1940360687262 348.73507857434515 364.3335665665511 349.03536196489176 369.3755270817082 351.7972861638798 375.7322957136314 349.9464243487091 379.63472451038996 356.8454750367614 388.3216576414452 356.8926536002946 403.1740716346467 341.34480820629295 408.1963528276791 340.6639969423005 414.69209487424007 326.8417606922091 413.22067317998875 Z" stroke="#000" stroke-width="inherit" opacity="1" data-const-id="32" fill="#fff" class="hcharts-point"></path><path d="M 324.6164083836889 389.2442763073453 L 316.84535127899306 402.1641625330157 304.3102835855601 402.44900528144615 303.61650619523266 403.28432121973964 299.95475380538 410.46647972807534 291.00764903154743 416.0374437072374 273.11587600076274 432.78376137613327 265.6208061246563 432.60604466050546 251.73258720135456 440.1334742996255 249.32666760202974 447.0457020584872 238.58038075943284 452.7098911146371 229.28428249291852 444.1756229245459 220.12529600564403 446.47266108433354 213.67272549323556 438.02566878484646 218.43775638446715 429.7752761062932 224.34650417761674 402.6113302753266 216.0665232980666 387.83532644317654 223.387857830271 386.0499214306932 237.6118546437865 381.76822828890545 245.48770404303903 385.26584049384104 261.95278166586417 375.8095053445665 271.9758837615374 378.2453446113539 279.06768427322845 393.3478551481441 296.5296996091504 390.2611067458338 308.93136990425023 379.4587939040573 322.3061733538457 379.99952487536655 324.6164083836889 389.2442763073453 Z" stroke="#000" stroke-width="inherit" opacity="1" data-const-id="33" fill="#fff" class="hcharts-point"></path><path d="M 326.2916447692297 412.6969915978436 L 326.64205813708986 413.0305617188014 324.987531510408 413.0517439065014 323.34998708513183 413.1979332192511 319.2209449765613 415.627915524929 321.4773557170497 424.112847668517 321.43719836904154 424.1411777826346 312.61999529029373 428.61918582828366 305.8950674128497 447.82317591954006 320.1314959354612 445.96394534102365 319.4891739383872 460.62391938053275 323.34759092747794 470.2487447020556 322.31404229202235 470.09226211084973 312.2336891305494 471.23244794196694 295.6631746497151 489.42318400908164 288.4886704558511 484.54783158277786 280.0305799896646 485.2087226368983 275.814415205612 480.2847574429508 260.0942676930837 477.3280936971106 255.63084603506312 471.082205600685 258.67520277150265 463.04194300671276 268.94122228261165 463.19945727621234 274.70419669861036 456.87393360771904 279.182119967236 435.46588137981104 273.11587600076274 432.78376137613327 291.00764903154743 416.0374437072374 299.95475380538 410.46647972807534 303.61650619523266 403.28432121973964 304.1236017922644 402.67376301060335 304.15576267529804 402.7012977333982 305.8067462189257 403.4286257320961 308.49337796990517 406.01808964984224 312.41956034518 407.0898276146566 316.5156058012347 411.4120612213222 326.2916447692297 412.6969915978436 Z" stroke="#000" stroke-width="inherit" opacity="1" data-const-id="34" fill="#fff" class="hcharts-point"></path><path d="M 435.0880190595122 377.3232643032031 L 434.7980063100558 377.46346136934875 443.3166159235335 383.83435504446925 447.1973714190818 395.548423904742 431.7247107796369 412.0577638577787 431.45516105647016 415.49886130784483 416.7112835765542 431.79606863786927 409.27048585754034 445.94694105346804 406.48791061622273 460.485688406873 416.26703344375 471.98850517346654 416.2811706773298 480.8438076091096 403.92627190703337 482.9303411868653 380.97053943439084 489.9759735165443 378.5824530835791 494.0497308453892 349.3913153431543 501.1774844141223 336.4804527599928 495.89161688667247 337.3538824802129 479.5966635910826 330.7953033966477 478.5133972605664 324.5964526922563 470.4379189793576 323.34759092747794 470.2487447020556 319.4891739383872 460.62391938053275 320.1314959354612 445.96394534102365 305.8950674128497 447.82317591954006 312.61999529029373 428.61918582828366 321.43719836904154 424.1411777826346 321.86631413935737 423.8384555977017 336.33074059759025 427.3676243856961 352.1202941087293 442.4156019826907 366.2817944091288 446.1361216461612 374.7373156832941 451.61230707347875 384.906508011264 444.63736867067564 397.49377313579356 445.17117626540096 390.6062082735102 431.4883101488165 392.9275385300136 423.67991482674347 404.69379870182604 427.1634505953557 403.43478496887536 415.12665580085735 408.31524887368965 408.93782018309633 417.81861770799406 404.7489634849234 409.81558720360647 397.1264539816681 413.1895961490164 383.982456514936 419.54411839320784 375.38340341824403 425.13240572527906 379.62901923224285 435.0880190595122 377.3232643032031 Z" stroke="#000" stroke-width="inherit" opacity="1" data-const-id="35" fill="#fff" class="hcharts-point"></path><path d="M 324.5964526922563 470.4379189793576 L 330.7953033966477 478.5133972605664 337.3538824802129 479.5966635910826 336.4804527599928 495.89161688667247 349.3913153431543 501.1774844141223 329.34360919258717 516.0105529924526 324.81535978281767 525.1159976115932 325.1767522140452 537.9034593379924 319.67909663195405 552.6078865263763 320.4398270062637 567.9160351014249 310.10059782328455 583.659192231968 302.8102811558075 586.2370454076352 295.8896960471981 587.7440517974817 288.7310575488571 583.1881129484026 285.4142198741723 562.1024758408385 285.09059454817736 537.3770963572708 287.6267815098955 532.450285306964 278.89053134908227 520.3336575052751 271.60110802338306 519.8888419573753 272.9034172149429 503.7953479123408 269.1950921944765 496.50727967240294 289.9531957741334 489.8392212064941 288.4886704558511 484.54783158277786 295.6631746497151 489.42318400908164 312.2336891305494 471.23244794196694 322.31404229202235 470.09226211084973 324.5964526922563 470.4379189793576 Z" stroke="#000" stroke-width="inherit" opacity="1" data-const-id="36" fill="#fff" class="hcharts-point"></path><path d="M 288.4886704558511 484.54783158277786 L 289.9531957741334 489.8392212064941 269.1950921944765 496.50727967240294 272.9034172149429 503.7953479123408 271.60110802338306 519.8888419573753 261.8250579924696 518.6176615116816 259.50339235029116 531.2351825384575 251.52205846793092 541.6094551966743 232.32864980936415 540.9617322083513 222.2758927688804 525.5357483752188 210.11459077013848 509.43327256192464 216.76818808592935 503.7931418708706 223.5236511154984 494.67549406163187 225.264591993135 481.27903426830943 231.2990554184324 465.1912108019421 238.58038075943284 452.7098911146371 249.32666760202974 447.0457020584872 251.73258720135456 440.1334742996255 265.6208061246563 432.60604466050546 273.11587600076274 432.78376137613327 279.182119967236 435.46588137981104 274.70419669861036 456.87393360771904 268.94122228261165 463.19945727621234 258.67520277150265 463.04194300671276 255.63084603506312 471.082205600685 260.0942676930837 477.3280936971106 275.814415205612 480.2847574429508 280.0305799896646 485.2087226368983 288.4886704558511 484.54783158277786 Z" stroke="#000" stroke-width="inherit" opacity="1" data-const-id="37" fill="#fff" class="hcharts-point"></path><path d="M 271.60110802338306 519.8888419573753 L 278.89053134908227 520.3336575052751 287.6267815098955 532.450285306964 285.09059454817736 537.3770963572708 285.4142198741723 562.1024758408385 288.7310575488571 583.1881129484026 295.8896960471981 587.7440517974817 302.8102811558075 586.2370454076352 284.7049129301359 596.2361460248843 275.56321361938046 604.9075727424829 259.6615713313814 607.9389491652548 253.84365913786766 604.1151181336733 253.87591442768732 580.373198333172 248.63456568143 581.191119972428 241.02651013018158 566.3048677846548 223.69304955681864 558.8700143401956 221.06039640114344 554.1752205837444 214.13977351740695 543.5626824649614 215.91770113520363 537.5553112453188 222.2758927688804 525.5357483752188 232.32864980936415 540.9617322083513 251.52205846793092 541.6094551966743 259.50339235029116 531.2351825384575 261.8250579924696 518.6176615116816 271.60110802338306 519.8888419573753 Z" stroke="#000" stroke-width="inherit" opacity="1" data-const-id="38" fill="#fff" class="hcharts-point"></path><path d="M 223.69304955681864 558.8700143401956 L 241.02651013018158 566.3048677846548 248.63456568143 581.191119972428 253.87591442768732 580.373198333172 253.84365913786766 604.1151181336733 259.6615713313814 607.9389491652548 255.6806346770976 615 228.98096874818495 610.2310202215867 204.5963788498729 591.1683571291398 223.26721371506193 566.6861180922439 223.69304955681864 558.8700143401956 Z" stroke="#000" stroke-width="inherit" opacity="1" data-const-id="39" fill="#fff" class="hcharts-point"></path><path d="M 331.4902695885554 89.76829087769056 L 332.26661076698815 96.85898291269041 351.39654955083483 105.29711602379746 352.29921254685604 120.79526797057481 369.45543555735964 132.07437878411122 380.6469886119289 151.9048177292407 376.6795976513782 155.56354519760524 351.8082421674601 153.48662147826997 342.60907309616977 145.6795079237245 335.71449019910204 146.11413198802654 325.1468270839073 137.59831056836148 320.42016517249704 127.7961383756866 307.38718328120507 118.85650480514809 300.39805301800567 121.0666811700983 300.2036014961383 137.63586169691698 291.48362014562855 143.4515191638899 277.4879197079458 157.63797134172873 262.30450985800746 152.3723039064611 251.87168618421896 153.64750100639995 246.42165329690164 147.85619453217106 262.2385773419059 134.6017711860254 264.6158354544266 120.7572006314667 259.35885965002274 117.43497563313939 261.50757221338415 104.65624842467327 278.63019509665145 97.21052718599242 287.06595227334753 77.94249924662236 290.80363127640896 78.0873486740685 297.04172942222965 76.29148495700561 304.58273359541596 83.34630399113017 313.93391334605053 81.1150881166673 320.2512836177676 87.84018103034393 331.4902695885554 89.76829087769056 Z" stroke="#000" stroke-width="inherit" opacity="1" data-const-id="9" data-z-index="0" fill="#fff" class="hcharts-point"></path><path d="M 297.9193555819203 279.86557083547757 L 290.5356306011974 285.0254722178556 282.07532131487756 284.0449556918057 278.63635662701995 298.6968470747785 287.4547603642289 306.2210136532287 284.1160257204433 323.42338916112647 275.21258609090023 328.9309147232964 260.2808405376377 323.90924889075615 250.5344479755914 331.6716824955638 240.1939623737701 329.46153762315646 229.489188664575 322.2048213386707 224.79821481360233 311.27855085475375 225.76608933966324 304.3743312729106 235.72203675694433 300.9773487098093 246.57690805890383 292.6390248325395 249.78923998090545 284.75517562205556 243.9441184361871 273.87192460944607 257.67275167517084 268.8111466841037 264.59332278471277 249.5327251948058 265.9193547642337 236.10363842763303 271.86983615254235 234.3921646355071 271.99765637226415 233.94488131850963 272.58535466199294 234.2515072273276 274.0190541509189 236.43454439572207 287.8825040291026 238.1492506969187 281.58002321363483 254.31442489207853 290.0751123822296 260.0182383477562 293.0897243144048 278.23584899359764 297.9193555819203 279.86557083547757 Z" stroke="#000" stroke-width="inherit" opacity="1" data-const-id="17" data-z-index="0" fill="#fff" class="hcharts-point"></path><path d="M 225.93817574787005 273.72655841394777 L 240.85034077129396 279.2962730645659 243.9441184361871 273.87192460944607 249.78923998090545 284.75517562205556 246.57690805890383 292.6390248325395 235.72203675694433 300.9773487098093 225.76608933966324 304.3743312729106 224.79821481360233 311.27855085475375 212.57533987446885 308.7976668887869 209.94329148215598 302.7258560983871 198.3858815635533 301.3371490731978 197.57138251255157 289.22257100841455 188.15169728724564 285.29146435638467 178.98723534905042 286.72884831911426 177.17928987779757 280.7110268046647 167.23515041935903 282.2674103073117 167.04981293897998 282.14723055557766 165.43690791626224 274.22438807400465 182.97564567934913 265.5600448763912 194.0218600809489 267.75362325540885 207.14362612256468 274.84681964314484 207.4975473659547 265.2548063657367 218.57612169553803 273.5985717732175 225.99433630690405 273.91739742464443 225.93817574787005 273.72655841394777 Z" stroke="#000" stroke-width="inherit" opacity="1" data-const-id="20" data-z-index="0" fill="#fff" class="hcharts-point"></path><path d="M 323.88810218447816 285.77519118428614 L 324.30358167619227 286.1182438335244 324.43737033195487 287.0744980527707 324.86582781041795 288.1602581909507 326.41797233831835 290.7320152347976 339.12521345128084 291.39377695089263 335.8546022660679 305.8867765720352 340.3031367717577 308.8323420782705 338.2445571871835 320.84955104214066 346.6136739782007 317.889959899105 351.2147532945369 322.606759590861 349.5745230679448 323.71510400427746 358.9254302145323 328.70635023057537 376.47653736939304 319.3888041460977 389.49374704889954 326.76225770307434 395.5502344927383 326.43776572859076 392.3603467131006 339.5392008018536 391.14003432274467 359.5293941225569 390.5989479313364 359.2754416666875 371.0802037176967 350.186869503748 356.8298267681438 353.90408771806034 349.40528915402547 364.15798847174847 349.2676796938982 364.1940360687262 349.0255571523571 364.12955159951326 347.56663845085745 364.69033017101026 346.11421183735763 365.7953192695254 343.9165672113139 365.8207723059443 343.02011176851175 365.75061171145217 343.2608887215154 364.6702264822956 337.07422600665154 358.0927992266988 340.8338788843786 350.4161342748831 331.87962703197695 347.04885387933393 326.57394766558923 354.2800262568376 317.12035217553375 357.32852923110164 304.04928845360405 352.7318796922295 303.4469338829354 345.3025851867203 290.51566057270304 334.71367989548 284.1160257204433 323.42338916112647 287.4547603642289 306.2210136532287 278.63635662701995 298.6968470747785 282.07532131487756 284.0449556918057 290.5356306011974 285.0254722178556 297.9193555819203 279.86557083547757 308.57822406244463 277.193395322844 323.88810218447816 285.77519118428614 Z" stroke="#000" stroke-width="inherit" opacity="1" data-const-id="23" data-z-index="0" fill="#fff" class="hcharts-point"></path><path d="M 508.27378550451493 193.89318549865195 L 508.21068073120546 194.11656710401874 506.8126517704164 199.41446487294004 502.7833975755105 223.98113271308284 489.0579230454888 231.11069902201686 476.0500004598979 231.73908628564305 476.09124553820703 222.94584321899686 465.4652242017919 223.95034799709967 450.70619718861 241.21388510326082 437.4914151324202 245.55068701659607 416.92001346734344 242.08954592975334 415.8241585906984 242.6995207252799 403.72468002851616 230.79537678703798 409.0755046745772 224.1076097090249 418.43728381982396 222.81090535946768 425.5496796686922 216.84772109272387 439.4183364813351 219.99851502569655 460.5955510191183 211.31645908073673 466.4217801848233 201.41516481149165 468.7530078311076 189.871054555203 493.38538507034355 197.014482088316 494.82934828236057 188.2699309949834 508.27378550451493 193.89318549865195 Z" stroke="#000" stroke-width="inherit" opacity="1" data-const-id="26" data-z-index="0" fill="#fff" class="hcharts-point"></path><path d="M 459.3894658620912 309.9901320887791 L 459.0158747193934 310.4171364687255 456.5547794063664 316.5577836814178 446.6276840035354 319.2927600399649 440.8041504669113 315.3586731815131 438.94487138643547 304.1169052072146 432.44321739391563 295.1677831070634 442.50817753038297 293.83497501785814 464.00777825238464 278.4854661600787 469.19632319216953 270.7048207641458 484.8260230081404 263.0440509922405 489.83920692644847 255.7197240431923 508.95130603433483 240.25672308804332 511.63966894524026 247.65095133224878 513.7708541092337 270.5113284643698 513.2486206569572 288.7745046808934 501.405692458365 287.80940054430476 496.5002429436852 285.94101783286476 475.3965756641929 291.04745553052453 470.17456790774384 302.4170714281944 453.7014412285703 294.91564328559474 448.5831058048489 301.3037906382182 459.3894658620912 309.9901320887791 Z" stroke="#000" stroke-width="inherit" opacity="1" data-const-id="28" data-z-index="0" fill="#fff" class="hcharts-point"></path><path d="M 494.6775137822065 139.58020234530252 L 495.0989201216036 138.99974079554232 505.4918915727716 137.16032865100465 515.2949914748451 147.8879711587496 530.3267743178831 146.59063096577728 517.9693615345574 166.2032977897957 511.90464690097485 180.38105024544078 503.1998321217443 181.64716317310976 494.82934828236057 188.2699309949834 493.38538507034355 197.014482088316 468.7530078311076 189.871054555203 466.4217801848233 201.41516481149165 460.5955510191183 211.31645908073673 439.4183364813351 219.99851502569655 432.3341207994219 209.0393851691258 433.18085721230557 190.19167026600581 440.4809004114232 192.1741269731539 442.8421978872563 180.01067977003245 431.79038122162564 177.1281061445487 431.7776178741018 175.1024720634393 433.4406555461325 171.77732935957366 433.39373186956914 170.8816667009927 433.74216925647283 170.626776127801 446.93141491500296 166.17307403421992 475.3657191449115 159.83189212891426 483.92908854144935 169.4690521010691 490.2252005131412 166.1669773835028 485.7311179234963 151.02543580997468 490.5426882656312 144.98624340679063 494.2566300122684 144.79495495349312 496.8474210040845 140.40565993651057 495.73238398522204 140.22531487596737 494.6775137822065 139.58020234530252 Z" stroke="#000" stroke-width="inherit" opacity="1" data-const-id="13" data-z-index="0" fill="#fff" class="hcharts-point"></path><path d="M 426.4481589160532 60.0227453157509 L 427.6789005125015 61.383942184400304 425.6582422814696 69.1567650804298 432.2886484021995 75.21112119397935 431.5905639150071 83.89551166524636 428.77410402950295 84.83623078042345 428.21811057206816 86.13229963028674 428.0600515987084 90.71783939188813 428.0378333193833 90.98721545194825 415.50411798912097 100.61219814634246 406.2498428612247 98.19669851142808 395.60604550333125 115.88192189196863 386.6951215627203 123.13717461654888 377.4550302613784 119.16905573833955 384.1993945070629 108.95609865589363 373.2349997817597 100.41928250120164 364.6199227155674 106.73232882392956 358.7405357195524 102.84124803549287 368.76276150755837 95.90505394679067 376.8656886699093 71.56919122811728 376.34739357747463 64.88125137799709 396.61909232200094 53.45261086294476 416.93535637870986 53.334640770656186 426.4481589160532 60.0227453157509 Z" stroke="#000" stroke-width="inherit" opacity="1" data-const-id="8" data-z-index="0" fill="#fff" class="hcharts-point"></path><path d="M 225.74921276665034 273.08447035342067 L 225.99433630690405 273.91739742464443 218.57612169553803 273.5985717732175 207.4975473659547 265.2548063657367 207.14362612256468 274.84681964314484 194.0218600809489 267.75362325540885 182.97564567934913 265.5600448763912 165.43690791626224 274.22438807400465 152.18727848942396 265.7588732598682 131.36345921408622 264.80761855086996 139.84484779119234 257.2320443949868 142.59793514323974 247.17791457710283 132.4833666977475 243.8544463154043 122.68437890506223 236.41383973345887 111.02303765311521 233.60626321174126 107.37782713414873 223.38557919212687 115.50135945834714 223.38321924336586 129.37383171585344 216.5426588842902 129.61193951854665 212.70601082730954 138.6911931763088 208.3470806091174 144.2724152866778 217.87723623087535 150.3793687944028 219.26447889875556 177.72584677180615 219.05027120994734 175.36476410658076 213.76433893665018 183.16960193099328 198.70160561119462 194.94902781251534 196.46366011862452 206.02907468329244 200.91252938415093 221.64462729216683 196.46896172100918 231.14318263329523 201.32534169500298 241.61759373765383 202.22959050385708 244.3167301517665 224.3347830443783 240.33393683471803 228.87239985755988 226.45217785958243 230.0968353037799 226.79934644992034 237.86965487518884 213.30785547551855 247.72026115641054 223.28136923922307 251.83442665704862 230.57172668667687 258.86086040067477 225.74921276665034 273.08447035342067 Z" stroke="#000" stroke-width="inherit" opacity="1" data-const-id="19" data-z-index="1" fill="#fff" class="hcharts-point hcharts-point-hover"></path></g></g><g data-z-index="0.1" transform="translate(10,10) scale(1 1)" style="cursor:pointer;" clip-path="none" class="hcharts-markers hcharts-series-0 hcharts-map-series hcharts-tracker hcharts-series-hover"></g><g data-z-index="0.1" transform="translate(10,10) scale(1 1)" stroke-width="1" style="cursor:pointer;" clip-path="url(#hcharts-m9kea9s-1-)" opacity="0.2" class="hcharts-series hcharts-series-1 hcharts-mapline-series hcharts-tracker hcharts-series-inactive"><g transform="translate(0,0) scale(1 1)"><path d="M 297.9193555819203 279.86557083547757 L 290.5356306011974 285.0254722178556 282.07532131487756 284.0449556918057 278.63635662701995 298.6968470747785 287.4547603642289 306.2210136532287 284.1160257204433 323.42338916112647 275.21258609090023 328.9309147232964 260.2808405376377 323.90924889075615 250.5344479755914 331.6716824955638 240.1939623737701 329.46153762315646 229.489188664575 322.2048213386707 224.79821481360233 311.27855085475375 225.76608933966324 304.3743312729106 235.72203675694433 300.9773487098093 246.57690805890383 292.6390248325395 249.78923998090545 284.75517562205556 243.9441184361871 273.87192460944607 257.67275167517084 268.8111466841037 264.59332278471277 249.5327251948058 265.9193547642337 236.10363842763303 271.86983615254235 234.3921646355071 271.99765637226415 233.94488131850963 272.58535466199294 234.2515072273276 274.0190541509189 236.43454439572207 287.8825040291026 238.1492506969187 281.58002321363483 254.31442489207853 290.0751123822296 260.0182383477562 293.0897243144048 278.23584899359764 297.9193555819203 279.86557083547757 Z" stroke="#eee" stroke-width="inherit" opacity="1" data-state="TN" data-key="17" fill="#fff" class="hcharts-point"></path><path d="M 288.4886704558511 484.54783158277786 L 289.9531957741334 489.8392212064941 269.1950921944765 496.50727967240294 272.9034172149429 503.7953479123408 271.60110802338306 519.8888419573753 261.8250579924696 518.6176615116816 259.50339235029116 531.2351825384575 251.52205846793092 541.6094551966743 232.32864980936415 540.9617322083513 222.2758927688804 525.5357483752188 210.11459077013848 509.43327256192464 216.76818808592935 503.7931418708706 223.5236511154984 494.67549406163187 225.264591993135 481.27903426830943 231.2990554184324 465.1912108019421 238.58038075943284 452.7098911146371 249.32666760202974 447.0457020584872 251.73258720135456 440.1334742996255 265.6208061246563 432.60604466050546 273.11587600076274 432.78376137613327 279.182119967236 435.46588137981104 274.70419669861036 456.87393360771904 268.94122228261165 463.19945727621234 258.67520277150265 463.04194300671276 255.63084603506312 471.082205600685 260.0942676930837 477.3280936971106 275.814415205612 480.2847574429508 280.0305799896646 485.2087226368983 288.4886704558511 484.54783158277786 Z" stroke="#eee" stroke-width="inherit" opacity="1" data-state="TN" data-key="37" fill="#fff" class="hcharts-point"></path><path d="M 271.60110802338306 519.8888419573753 L 278.89053134908227 520.3336575052751 287.6267815098955 532.450285306964 285.09059454817736 537.3770963572708 285.4142198741723 562.1024758408385 288.7310575488571 583.1881129484026 295.8896960471981 587.7440517974817 302.8102811558075 586.2370454076352 284.7049129301359 596.2361460248843 275.56321361938046 604.9075727424829 259.6615713313814 607.9389491652548 253.84365913786766 604.1151181336733 253.87591442768732 580.373198333172 248.63456568143 581.191119972428 241.02651013018158 566.3048677846548 223.69304955681864 558.8700143401956 221.06039640114344 554.1752205837444 214.13977351740695 543.5626824649614 215.91770113520363 537.5553112453188 222.2758927688804 525.5357483752188 232.32864980936415 540.9617322083513 251.52205846793092 541.6094551966743 259.50339235029116 531.2351825384575 261.8250579924696 518.6176615116816 271.60110802338306 519.8888419573753 Z" stroke="#eee" stroke-width="inherit" opacity="1" data-state="TN" data-key="38" fill="#fff" class="hcharts-point"></path><path d="M 223.69304955681864 558.8700143401956 L 241.02651013018158 566.3048677846548 248.63456568143 581.191119972428 253.87591442768732 580.373198333172 253.84365913786766 604.1151181336733 259.6615713313814 607.9389491652548 255.6806346770976 615 228.98096874818495 610.2310202215867 204.5963788498729 591.1683571291398 223.26721371506193 566.6861180922439 223.69304955681864 558.8700143401956 Z" stroke="#eee" stroke-width="inherit" opacity="1" data-state="TN" data-key="39" fill="#fff" class="hcharts-point"></path><path d="M 225.93817574787005 273.72655841394777 L 240.85034077129396 279.2962730645659 243.9441184361871 273.87192460944607 249.78923998090545 284.75517562205556 246.57690805890383 292.6390248325395 235.72203675694433 300.9773487098093 225.76608933966324 304.3743312729106 224.79821481360233 311.27855085475375 212.57533987446885 308.7976668887869 209.94329148215598 302.7258560983871 198.3858815635533 301.3371490731978 197.57138251255157 289.22257100841455 188.15169728724564 285.29146435638467 178.98723534905042 286.72884831911426 177.17928987779757 280.7110268046647 167.23515041935903 282.2674103073117 167.04981293897998 282.14723055557766 165.43690791626224 274.22438807400465 182.97564567934913 265.5600448763912 194.0218600809489 267.75362325540885 207.14362612256468 274.84681964314484 207.4975473659547 265.2548063657367 218.57612169553803 273.5985717732175 225.99433630690405 273.91739742464443 225.93817574787005 273.72655841394777 Z" stroke="#eee" stroke-width="inherit" opacity="1" data-state="TN" data-key="20" fill="#fff" class="hcharts-point"></path><path d="M 459.3894658620912 309.9901320887791 L 459.0158747193934 310.4171364687255 456.5547794063664 316.5577836814178 446.6276840035354 319.2927600399649 440.8041504669113 315.3586731815131 438.94487138643547 304.1169052072146 432.44321739391563 295.1677831070634 442.50817753038297 293.83497501785814 464.00777825238464 278.4854661600787 469.19632319216953 270.7048207641458 484.8260230081404 263.0440509922405 489.83920692644847 255.7197240431923 508.95130603433483 240.25672308804332 511.63966894524026 247.65095133224878 513.7708541092337 270.5113284643698 513.2486206569572 288.7745046808934 501.405692458365 287.80940054430476 496.5002429436852 285.94101783286476 475.3965756641929 291.04745553052453 470.17456790774384 302.4170714281944 453.7014412285703 294.91564328559474 448.5831058048489 301.3037906382182 459.3894658620912 309.9901320887791 Z" stroke="#eee" stroke-width="inherit" opacity="1" data-state="TN" data-key="28" fill="#fff" class="hcharts-point"></path><path d="M 416.0947025178307 242.54892022308306 L 416.0970069603708 242.86487052156744 416.1063880314858 244.1511599146215 417.2344094405738 245.6132463906788 417.2543052495278 248.36927095763838 413.9070916698837 248.94435146445883 408.91593243685634 253.57424040416606 411.05139241055815 265.1295181534525 399.72635518125145 267.60473908911433 401.85164915746907 277.3180023563969 416.53026081601655 276.84021014953487 418.7204911042301 286.6163064354357 413.8612038176237 293.2197018246929 418.4962654114563 299.83663167953335 397.29512018769015 305.8162088510147 372.52575515917596 300.72985465075294 363.5173592884875 321.02812407519525 357.72533900561984 320.6551527829963 355.1534294094754 322.69929290147104 353.664889469801 322.16576835961354 352.192912114889 323.09850651760166 350.7106100268633 323.1150557652712 350.5062397641427 323.08548507436115 351.2147532945369 322.606759590861 346.6136739782007 317.889959899105 338.2445571871835 320.84955104214066 340.3031367717577 308.8323420782705 335.8546022660679 305.8867765720352 339.12521345128084 291.39377695089263 326.41797233831835 290.7320152347976 324.86582781041795 288.1602581909507 324.43737033195487 287.0744980527707 324.30358167619227 286.1182438335244 324.40652592714 286.203246070619 333.35217378229527 277.243285480761 341.8476308960685 281.11401949801126 348.38601586486254 271.9045127128717 357.8087148434998 252.57460396709948 360.05872535846333 242.22384931568624 367.4284181910313 247.36512524224366 377.65480513241295 249.03545526524732 378.5896033369431 240.37836844203392 384.02153241984996 236.57806895122013 394.203394224635 236.77049499797127 403.72468002851616 230.79537678703798 415.8241585906984 242.6995207252799 416.0947025178307 242.54892022308306 Z" stroke="#eee" stroke-width="inherit" opacity="1" data-state="TN" data-key="25" fill="#fff" class="hcharts-point"></path><path d="M 284.1160257204433 323.42338916112647 L 290.51566057270304 334.71367989548 303.4469338829354 345.3025851867203 304.04928845360405 352.7318796922295 317.12035217553375 357.32852923110164 326.57394766558923 354.2800262568376 331.87962703197695 347.04885387933393 340.8338788843786 350.4161342748831 337.07422600665154 358.0927992266988 343.2608887215154 364.6702264822956 342.9791040143085 365.9346280055976 342.39327110138794 374.2429985162288 335.34447395810207 379.92545801128233 334.64447366758435 389.974895046759 324.6164083836889 389.2442763073453 322.3061733538457 379.99952487536655 308.93136990425023 379.4587939040573 296.5296996091504 390.2611067458338 279.06768427322845 393.3478551481441 271.9758837615374 378.2453446113539 261.95278166586417 375.8095053445665 245.48770404303903 385.26584049384104 237.6118546437865 381.76822828890545 223.387857830271 386.0499214306932 225.7787785303285 373.80365350749054 232.67919295926333 368.6352493649474 228.69780862968366 359.7591418537756 229.78463636531882 349.1439745060222 240.1939623737701 329.46153762315646 250.5344479755914 331.6716824955638 260.2808405376377 323.90924889075615 275.21258609090023 328.9309147232964 284.1160257204433 323.42338916112647 Z" stroke="#eee" stroke-width="inherit" opacity="1" data-state="TN" data-key="22" fill="#fff" class="hcharts-point"></path><path d="M 494.6160731579725 34.03650824010062 L 494.4753030651471 34.631432205069196 487.9796726289765 34.65280610214923 495.29630634450285 41.878763433198024 500.16364349748346 44.712728407109466 499.76836657288857 52.47538346195745 505.7444016801379 60.666846259587054 500.9203101891787 64.04165607381904 481.90509047242756 74.42707265402417 480.4916565084537 80.01857205597767 472.61928050278397 77.46184389226497 468.3895828197353 100.11985608136058 449.9946494671877 87.81006332950302 440.75475340388664 92.27607769091841 430.08518281480025 90.4566567091547 428.0756614211809 90.52858854822719 428.0600515987084 90.71783939188813 428.21811057206816 86.13229963028674 428.77410402950295 84.83623078042345 431.5905639150071 83.89551166524636 432.2886484021995 75.21112119397935 425.6582422814696 69.1567650804298 427.6789005125015 61.383942184400304 426.47227298158174 60.04941265036045 436.1522106824254 61.01106137505906 444.4001334714439 46.73400542904739 452.53386770623206 48.93109447737222 466.1998493451358 41.10484299122263 465.80745731500764 25.705998517656298 479.1103445230399 26.897144277209154 481.2529328770466 32.703977908238784 494.6160731579725 34.03650824010062 Z" stroke="#eee" stroke-width="inherit" opacity="1" data-state="TN" data-key="7" fill="#fff" class="hcharts-point"></path><path d="M 561.6188982489246 58.35871126617874 L 557.9517908152843 79.30798144284057 549.0851512296895 78.98990532366517 548.9027675766936 78.36337298725658 548.1940211025571 69.99832173425898 553.5195555284296 62.853655073828776 550.8028423291834 55.496238499205326 551.1379848215852 54.51499127012502 551.7582993790666 55.02950196727201 552.7808266157015 55.36522201100435 553.527953668867 57.372002819041285 556.4590254475604 58.04512768545111 556.5915849352591 60.251443902674204 561.6188982489246 58.35871126617874 Z" stroke="#eee" stroke-width="inherit" opacity="1" data-state="TN" data-key="3" fill="#fff" class="hcharts-point"></path><path d="M 331.4902695885554 89.76829087769056 L 332.26661076698815 96.85898291269041 351.39654955083483 105.29711602379746 352.29921254685604 120.79526797057481 369.45543555735964 132.07437878411122 380.6469886119289 151.9048177292407 376.6795976513782 155.56354519760524 351.8082421674601 153.48662147826997 342.60907309616977 145.6795079237245 335.71449019910204 146.11413198802654 325.1468270839073 137.59831056836148 320.42016517249704 127.7961383756866 307.38718328120507 118.85650480514809 300.39805301800567 121.0666811700983 300.2036014961383 137.63586169691698 291.48362014562855 143.4515191638899 277.4879197079458 157.63797134172873 262.30450985800746 152.3723039064611 251.87168618421896 153.64750100639995 246.42165329690164 147.85619453217106 262.2385773419059 134.6017711860254 264.6158354544266 120.7572006314667 259.35885965002274 117.43497563313939 261.50757221338415 104.65624842467327 278.63019509665145 97.21052718599242 287.06595227334753 77.94249924662236 290.80363127640896 78.0873486740685 297.04172942222965 76.29148495700561 304.58273359541596 83.34630399113017 313.93391334605053 81.1150881166673 320.2512836177676 87.84018103034393 331.4902695885554 89.76829087769056 Z" stroke="#eee" stroke-width="inherit" opacity="1" data-state="TN" data-key="9" fill="#fff" class="hcharts-point"></path><path d="M 480.4916565084537 80.01857205597767 L 501.36719756083664 91.99480363093173 500.3336099925101 96.81460913920814 488.71566523784526 104.524578175805 502.51317862985206 117.18758341550455 500.4731205819888 124.41645646753848 490.1543056870609 134.98278857796538 494.49534443647156 139.83114320854762 494.6775137822065 139.58020234530252 495.73238398522204 140.22531487596737 496.8474210040845 140.40565993651057 494.2566300122684 144.79495495349312 490.5426882656312 144.98624340679063 485.7311179234963 151.02543580997468 490.2252005131412 166.1669773835028 483.92908854144935 169.4690521010691 475.3657191449115 159.83189212891426 446.93141491500296 166.17307403421992 441.66686883392083 156.6839652266317 449.8059503533874 139.4883717072626 433.904762188024 123.37643585570191 422.43038822120405 119.75977537398501 433.03217497286704 103.82445350868238 430.08518281480025 90.4566567091547 440.75475340388664 92.27607769091841 449.9946494671877 87.81006332950302 468.3895828197353 100.11985608136058 472.61928050278397 77.46184389226497 480.4916565084537 80.01857205597767 Z" stroke="#eee" stroke-width="inherit" opacity="1" data-state="TN" data-key="12" fill="#fff" class="hcharts-point"></path><path d="M 430.08518281480025 90.4566567091547 L 433.03217497286704 103.82445350868238 422.43038822120405 119.75977537398501 433.904762188024 123.37643585570191 449.8059503533874 139.4883717072626 441.66686883392083 156.6839652266317 446.93141491500296 166.17307403421992 433.74216925647283 170.626776127801 433.3267448409171 170.93067097951646 428.81585207135225 172.74883453265738 413.2435141562704 167.81484204464297 408.42565814875337 173.71146945636266 390.81097918303897 174.24327002274288 385.975297703477 177.55459831745918 376.6795976513782 155.56354519760524 380.6469886119289 151.9048177292407 369.45543555735964 132.07437878411122 352.29921254685604 120.79526797057481 351.39654955083483 105.29711602379746 358.7405357195524 102.84124803549287 364.6199227155674 106.73232882392956 373.2349997817597 100.41928250120164 384.1993945070629 108.95609865589363 377.4550302613784 119.16905573833955 386.6951215627203 123.13717461654888 395.60604550333125 115.88192189196863 406.2498428612247 98.19669851142808 415.50411798912097 100.61219814634246 428.0378333193833 90.98721545194825 428.0756614211809 90.52858854822719 430.08518281480025 90.4566567091547 Z" stroke="#eee" stroke-width="inherit" opacity="1" data-state="TN" data-key="11" fill="#fff" class="hcharts-point"></path><path d="M 552.7786774253585 49.310605320446086 L 552.5158740830827 50.015769960174715 551.8321146026826 51.08469957420029 551.6947309480836 51.753170388200296 551.1452226183463 54.493801337678505 550.8028423291834 55.496238499205326 553.5195555284296 62.853655073828776 548.1940211025571 69.99832173425898 548.9027675766936 78.36337298725658 548.7784054433511 77.93618276214988 536.9717368569975 74.57955712156586 533.3369548977962 83.00254657017159 519.720045850177 85.87762162577532 519.7417044234412 78.19964996989557 505.17773790489724 71.69306100728518 500.9203101891787 64.04165607381904 505.7444016801379 60.666846259587054 510.0438106429936 67.26653238481292 517.9638081497501 69.15692942693234 526.4602396232381 57.83785179787405 543.6378237355786 60.03455671451977 546.0367983408754 47.93495681284443 552.7786774253585 49.310605320446086 Z" stroke="#eee" stroke-width="inherit" opacity="1" data-state="TN" data-key="5" fill="#fff" class="hcharts-point"></path><path d="M 426.4481589160532 60.0227453157509 L 427.6789005125015 61.383942184400304 425.6582422814696 69.1567650804298 432.2886484021995 75.21112119397935 431.5905639150071 83.89551166524636 428.77410402950295 84.83623078042345 428.21811057206816 86.13229963028674 428.0600515987084 90.71783939188813 428.0378333193833 90.98721545194825 415.50411798912097 100.61219814634246 406.2498428612247 98.19669851142808 395.60604550333125 115.88192189196863 386.6951215627203 123.13717461654888 377.4550302613784 119.16905573833955 384.1993945070629 108.95609865589363 373.2349997817597 100.41928250120164 364.6199227155674 106.73232882392956 358.7405357195524 102.84124803549287 368.76276150755837 95.90505394679067 376.8656886699093 71.56919122811728 376.34739357747463 64.88125137799709 396.61909232200094 53.45261086294476 416.93535637870986 53.334640770656186 426.4481589160532 60.0227453157509 Z" stroke="#eee" stroke-width="inherit" opacity="1" data-state="TN" data-key="8" fill="#fff" class="hcharts-point"></path><path d="M 548.7784054433511 77.93618276214988 L 549.0851512296895 78.98990532366517 557.9517908152843 79.30798144284057 558.2580427118647 89.29227896657447 545.2919486183455 126.79396372630032 530.3267743178831 146.59063096577728 515.2949914748451 147.8879711587496 505.4918915727716 137.16032865100465 495.0989201216036 138.99974079554232 494.49534443647156 139.83114320854762 490.1543056870609 134.98278857796538 500.4731205819888 124.41645646753848 502.51317862985206 117.18758341550455 488.71566523784526 104.524578175805 500.3336099925101 96.81460913920814 501.36719756083664 91.99480363093173 480.4916565084537 80.01857205597767 481.90509047242756 74.42707265402417 500.9203101891787 64.04165607381904 505.17773790489724 71.69306100728518 519.7417044234412 78.19964996989557 519.720045850177 85.87762162577532 533.3369548977962 83.00254657017159 536.9717368569975 74.57955712156586 548.7784054433511 77.93618276214988 Z" stroke="#eee" stroke-width="inherit" opacity="1" data-state="TN" data-key="6" fill="#fff" class="hcharts-point"></path><path d="M 433.3267448409171 170.93067097951646 L 433.39373186956914 170.8816667009927 433.4406555461325 171.77732935957366 431.7776178741018 175.1024720634393 431.79038122162564 177.1281061445487 442.8421978872563 180.01067977003245 440.4809004114232 192.1741269731539 433.18085721230557 190.19167026600581 432.3341207994219 209.0393851691258 439.4183364813351 219.99851502569655 425.5496796686922 216.84772109272387 418.43728381982396 222.81090535946768 409.0755046745772 224.1076097090249 403.72468002851616 230.79537678703798 394.203394224635 236.77049499797127 384.02153241984996 236.57806895122013 378.5896033369431 240.37836844203392 377.65480513241295 249.03545526524732 367.4284181910313 247.36512524224366 360.05872535846333 242.22384931568624 355.47963486704816 242.81112648127902 356.2139031687349 220.89723541635345 341.51649882405 222.28993136298442 340.1521827605906 221.91506555573383 331.6661711349292 215.8659277233077 320.2293622613164 197.93425674359239 333.8336106345771 181.46272255444273 333.77328122058384 182.0553266961911 356.441939712635 195.04081525910144 366.34973727035265 197.66662629550322 377.4403704531303 188.54850616133652 386.75369359438207 184.781287301494 385.975297703477 177.55459831745918 390.81097918303897 174.24327002274288 408.42565814875337 173.71146945636266 413.2435141562704 167.81484204464297 428.81585207135225 172.74883453265738 433.3267448409171 170.93067097951646 Z" stroke="#eee" stroke-width="inherit" opacity="1" data-state="TN" data-key="14" fill="#fff" class="hcharts-point"></path><path d="M 225.74921276665034 273.08447035342067 L 225.99433630690405 273.91739742464443 218.57612169553803 273.5985717732175 207.4975473659547 265.2548063657367 207.14362612256468 274.84681964314484 194.0218600809489 267.75362325540885 182.97564567934913 265.5600448763912 165.43690791626224 274.22438807400465 152.18727848942396 265.7588732598682 131.36345921408622 264.80761855086996 139.84484779119234 257.2320443949868 142.59793514323974 247.17791457710283 132.4833666977475 243.8544463154043 122.68437890506223 236.41383973345887 111.02303765311521 233.60626321174126 107.37782713414873 223.38557919212687 115.50135945834714 223.38321924336586 129.37383171585344 216.5426588842902 129.61193951854665 212.70601082730954 138.6911931763088 208.3470806091174 144.2724152866778 217.87723623087535 150.3793687944028 219.26447889875556 177.72584677180615 219.05027120994734 175.36476410658076 213.76433893665018 183.16960193099328 198.70160561119462 194.94902781251534 196.46366011862452 206.02907468329244 200.91252938415093 221.64462729216683 196.46896172100918 231.14318263329523 201.32534169500298 241.61759373765383 202.22959050385708 244.3167301517665 224.3347830443783 240.33393683471803 228.87239985755988 226.45217785958243 230.0968353037799 226.79934644992034 237.86965487518884 213.30785547551855 247.72026115641054 223.28136923922307 251.83442665704862 230.57172668667687 258.86086040067477 225.74921276665034 273.08447035342067 Z" stroke="#eee" stroke-width="inherit" opacity="1" data-state="TN" data-key="19" fill="#fff" class="hcharts-point"></path><path d="M 502.7833975755105 223.98113271308284 L 508.95130603433483 240.25672308804332 489.83920692644847 255.7197240431923 484.8260230081404 263.0440509922405 469.19632319216953 270.7048207641458 464.00777825238464 278.4854661600787 442.50817753038297 293.83497501785814 432.44321739391563 295.1677831070634 418.4962654114563 299.83663167953335 413.8612038176237 293.2197018246929 418.7204911042301 286.6163064354357 416.53026081601655 276.84021014953487 401.85164915746907 277.3180023563969 399.72635518125145 267.60473908911433 411.05139241055815 265.1295181534525 408.91593243685634 253.57424040416606 413.9070916698837 248.94435146445883 417.2543052495278 248.36927095763838 417.2344094405738 245.6132463906788 416.1063880314858 244.1511599146215 416.0970069603708 242.86487052156744 416.0947025178307 242.54892022308306 416.92001346734344 242.08954592975334 437.4914151324202 245.55068701659607 450.70619718861 241.21388510326082 465.4652242017919 223.95034799709967 476.09124553820703 222.94584321899686 476.0500004598979 231.73908628564305 489.0579230454888 231.11069902201686 502.7833975755105 223.98113271308284 Z" stroke="#eee" stroke-width="inherit" opacity="1" data-state="TN" data-key="27" fill="#fff" class="hcharts-point"></path><path d="M 563.5419394158553 51.66430797082105 L 556.5352936577037 53.36520464127119 555.2429510836209 51.15659097069308 552.5824245550688 51.15260946019371 551.7676813127682 51.39820853909061 551.8321146026826 51.08469957420029 552.5158740830827 50.015769960174715 552.7898610817242 49.28059804848559 566.7548237948963 36.929234928026126 563.5419394158553 51.66430797082105 Z" stroke="#eee" stroke-width="inherit" opacity="1" data-state="TN" data-key="2" fill="#fff" class="hcharts-point"></path><path d="M 561.6188982489246 58.35871126617874 L 556.5915849352591 60.251443902674204 556.4590254475604 58.04512768545111 553.527953668867 57.372002819041285 552.7808266157015 55.36522201100435 551.7582993790666 55.02950196727201 551.1379848215852 54.51499127012502 551.1452226183463 54.493801337678505 551.6947309480836 51.753170388200296 551.7676813127682 51.39820853909061 552.5824245550688 51.15260946019371 555.2429510836209 51.15659097069308 556.5352936577037 53.36520464127119 563.5419394158553 51.66430797082105 561.6188982489246 58.35871126617874 Z" stroke="#eee" stroke-width="inherit" opacity="1" data-state="TN" data-key="4" fill="#fff" class="hcharts-point"></path><path d="M 324.5964526922563 470.4379189793576 L 330.7953033966477 478.5133972605664 337.3538824802129 479.5966635910826 336.4804527599928 495.89161688667247 349.3913153431543 501.1774844141223 329.34360919258717 516.0105529924526 324.81535978281767 525.1159976115932 325.1767522140452 537.9034593379924 319.67909663195405 552.6078865263763 320.4398270062637 567.9160351014249 310.10059782328455 583.659192231968 302.8102811558075 586.2370454076352 295.8896960471981 587.7440517974817 288.7310575488571 583.1881129484026 285.4142198741723 562.1024758408385 285.09059454817736 537.3770963572708 287.6267815098955 532.450285306964 278.89053134908227 520.3336575052751 271.60110802338306 519.8888419573753 272.9034172149429 503.7953479123408 269.1950921944765 496.50727967240294 289.9531957741334 489.8392212064941 288.4886704558511 484.54783158277786 295.6631746497151 489.42318400908164 312.2336891305494 471.23244794196694 322.31404229202235 470.09226211084973 324.5964526922563 470.4379189793576 Z" stroke="#eee" stroke-width="inherit" opacity="1" data-state="TN" data-key="36" fill="#fff" class="hcharts-point"></path><path d="M 501.405692458365 287.80940054430476 L 501.0894423412237 297.2112583218951 509.6178716420738 300.13836758864943 512.9111559152293 306.82604140880676 514.2590587622703 344.3216157738167 516.2592036368031 367.0086290221501 507.11371496566903 369.1347363663607 486.8013068170532 365.7211329203936 474.4773785780227 359.8276237578702 470.8727862398891 353.8771253051959 474.801430197541 330.6255755669559 472.96797116279225 315.7303099181639 459.51683416627975 309.84455955137514 459.3894658620912 309.9901320887791 448.5831058048489 301.3037906382182 453.7014412285703 294.91564328559474 470.17456790774384 302.4170714281944 475.3965756641929 291.04745553052453 496.5002429436852 285.94101783286476 501.405692458365 287.80940054430476 Z" stroke="#eee" stroke-width="inherit" opacity="1" data-state="TN" data-key="29" fill="#fff" class="hcharts-point"></path><path d="M 566.7548237948963 36.929234928026126 L 552.7898610817242 49.28059804848559 552.7786774253585 49.310605320446086 546.0367983408754 47.93495681284443 543.6378237355786 60.03455671451977 526.4602396232381 57.83785179787405 517.9638081497501 69.15692942693234 510.0438106429936 67.26653238481292 505.7444016801379 60.666846259587054 499.76836657288857 52.47538346195745 500.16364349748346 44.712728407109466 495.29630634450285 41.878763433198024 487.9796726289765 34.65280610214923 494.4753030651471 34.631432205069196 494.3196089018395 35.28947169635985 503.6185787297067 27.771906976043685 505.2264178118902 29.242221656471077 522.8598702575525 24.018945477224445 526.9190615805262 11.094782846670686 531.854579268021 6.998451897618308 555.0722360440091 8.93624245640103 560.0329228976584 0 568.6221728658513 28.110487418866946 566.7548237948963 36.929234928026126 Z" stroke="#eee" stroke-width="inherit" opacity="1" data-state="TN" data-key="1" fill="#fff" class="hcharts-point"></path><path d="M 494.6775137822065 139.58020234530252 L 495.0989201216036 138.99974079554232 505.4918915727716 137.16032865100465 515.2949914748451 147.8879711587496 530.3267743178831 146.59063096577728 517.9693615345574 166.2032977897957 511.90464690097485 180.38105024544078 503.1998321217443 181.64716317310976 494.82934828236057 188.2699309949834 493.38538507034355 197.014482088316 468.7530078311076 189.871054555203 466.4217801848233 201.41516481149165 460.5955510191183 211.31645908073673 439.4183364813351 219.99851502569655 432.3341207994219 209.0393851691258 433.18085721230557 190.19167026600581 440.4809004114232 192.1741269731539 442.8421978872563 180.01067977003245 431.79038122162564 177.1281061445487 431.7776178741018 175.1024720634393 433.4406555461325 171.77732935957366 433.39373186956914 170.8816667009927 433.74216925647283 170.626776127801 446.93141491500296 166.17307403421992 475.3657191449115 159.83189212891426 483.92908854144935 169.4690521010691 490.2252005131412 166.1669773835028 485.7311179234963 151.02543580997468 490.5426882656312 144.98624340679063 494.2566300122684 144.79495495349312 496.8474210040845 140.40565993651057 495.73238398522204 140.22531487596737 494.6775137822065 139.58020234530252 Z" stroke="#eee" stroke-width="inherit" opacity="1" data-state="TN" data-key="13" fill="#fff" class="hcharts-point"></path><path d="M 508.27378550451493 193.89318549865195 L 508.21068073120546 194.11656710401874 506.8126517704164 199.41446487294004 502.7833975755105 223.98113271308284 489.0579230454888 231.11069902201686 476.0500004598979 231.73908628564305 476.09124553820703 222.94584321899686 465.4652242017919 223.95034799709967 450.70619718861 241.21388510326082 437.4914151324202 245.55068701659607 416.92001346734344 242.08954592975334 415.8241585906984 242.6995207252799 403.72468002851616 230.79537678703798 409.0755046745772 224.1076097090249 418.43728381982396 222.81090535946768 425.5496796686922 216.84772109272387 439.4183364813351 219.99851502569655 460.5955510191183 211.31645908073673 466.4217801848233 201.41516481149165 468.7530078311076 189.871054555203 493.38538507034355 197.014482088316 494.82934828236057 188.2699309949834 508.27378550451493 193.89318549865195 Z" stroke="#eee" stroke-width="inherit" opacity="1" data-state="TN" data-key="26" fill="#fff" class="hcharts-point"></path><path d="M 390.5989479313364 359.2754416666875 L 391.60171840696466 359.7460992313962 408.46233786429747 353.7855314402486 415.9092963843607 356.9426547654429 434.15872321249884 356.2446995052148 434.0010675351984 356.65222657054244 431.3473103106847 365.13486770214456 435.1891380493241 377.27438337485967 435.0880190595122 377.3232643032031 425.13240572527906 379.62901923224285 419.54411839320784 375.38340341824403 413.1895961490164 383.982456514936 409.81558720360647 397.1264539816681 417.81861770799406 404.7489634849234 408.31524887368965 408.93782018309633 403.43478496887536 415.12665580085735 404.69379870182604 427.1634505953557 392.9275385300136 423.67991482674347 390.6062082735102 431.4883101488165 397.49377313579356 445.17117626540096 384.906508011264 444.63736867067564 374.7373156832941 451.61230707347875 366.2817944091288 446.1361216461612 352.1202941087293 442.4156019826907 336.33074059759025 427.3676243856961 321.86631413935737 423.8384555977017 321.4773557170497 424.112847668517 319.2209449765613 415.627915524929 323.34998708513183 413.1979332192511 324.987531510408 413.0517439065014 326.64205813708986 413.0305617188014 326.8417606922091 413.22067317998875 340.6639969423005 414.69209487424007 341.34480820629295 408.1963528276791 356.8926536002946 403.1740716346467 356.8454750367614 388.3216576414452 349.9464243487091 379.63472451038996 351.7972861638798 375.7322957136314 349.03536196489176 369.3755270817082 348.73507857434515 364.3335665665511 349.40528915402547 364.15798847174847 356.8298267681438 353.90408771806034 371.0802037176967 350.186869503748 390.5989479313364 359.2754416666875 Z" stroke="#eee" stroke-width="inherit" opacity="1" data-state="TN" data-key="31" fill="#fff" class="hcharts-point"></path><path d="M 324.6164083836889 389.2442763073453 L 316.84535127899306 402.1641625330157 304.3102835855601 402.44900528144615 303.61650619523266 403.28432121973964 299.95475380538 410.46647972807534 291.00764903154743 416.0374437072374 273.11587600076274 432.78376137613327 265.6208061246563 432.60604466050546 251.73258720135456 440.1334742996255 249.32666760202974 447.0457020584872 238.58038075943284 452.7098911146371 229.28428249291852 444.1756229245459 220.12529600564403 446.47266108433354 213.67272549323556 438.02566878484646 218.43775638446715 429.7752761062932 224.34650417761674 402.6113302753266 216.0665232980666 387.83532644317654 223.387857830271 386.0499214306932 237.6118546437865 381.76822828890545 245.48770404303903 385.26584049384104 261.95278166586417 375.8095053445665 271.9758837615374 378.2453446113539 279.06768427322845 393.3478551481441 296.5296996091504 390.2611067458338 308.93136990425023 379.4587939040573 322.3061733538457 379.99952487536655 324.6164083836889 389.2442763073453 Z" stroke="#eee" stroke-width="inherit" opacity="1" data-state="TN" data-key="33" fill="#fff" class="hcharts-point"></path><path d="M 435.0880190595122 377.3232643032031 L 434.7980063100558 377.46346136934875 443.3166159235335 383.83435504446925 447.1973714190818 395.548423904742 431.7247107796369 412.0577638577787 431.45516105647016 415.49886130784483 416.7112835765542 431.79606863786927 409.27048585754034 445.94694105346804 406.48791061622273 460.485688406873 416.26703344375 471.98850517346654 416.2811706773298 480.8438076091096 403.92627190703337 482.9303411868653 380.97053943439084 489.9759735165443 378.5824530835791 494.0497308453892 349.3913153431543 501.1774844141223 336.4804527599928 495.89161688667247 337.3538824802129 479.5966635910826 330.7953033966477 478.5133972605664 324.5964526922563 470.4379189793576 323.34759092747794 470.2487447020556 319.4891739383872 460.62391938053275 320.1314959354612 445.96394534102365 305.8950674128497 447.82317591954006 312.61999529029373 428.61918582828366 321.43719836904154 424.1411777826346 321.86631413935737 423.8384555977017 336.33074059759025 427.3676243856961 352.1202941087293 442.4156019826907 366.2817944091288 446.1361216461612 374.7373156832941 451.61230707347875 384.906508011264 444.63736867067564 397.49377313579356 445.17117626540096 390.6062082735102 431.4883101488165 392.9275385300136 423.67991482674347 404.69379870182604 427.1634505953557 403.43478496887536 415.12665580085735 408.31524887368965 408.93782018309633 417.81861770799406 404.7489634849234 409.81558720360647 397.1264539816681 413.1895961490164 383.982456514936 419.54411839320784 375.38340341824403 425.13240572527906 379.62901923224285 435.0880190595122 377.3232643032031 Z" stroke="#eee" stroke-width="inherit" opacity="1" data-state="TN" data-key="35" fill="#fff" class="hcharts-point"></path><path d="M 339.7573612799782 221.8066068003927 L 341.51649882405 222.28993136298442 356.2139031687349 220.89723541635345 355.47963486704816 242.81112648127902 360.05872535846333 242.22384931568624 357.8087148434998 252.57460396709948 348.38601586486254 271.9045127128717 341.8476308960685 281.11401949801126 333.35217378229527 277.243285480761 324.40652592714 286.203246070619 323.88810218447816 285.77519118428614 308.57822406244463 277.193395322844 297.9193555819203 279.86557083547757 293.0897243144048 278.23584899359764 290.0751123822296 260.0182383477562 281.58002321363483 254.31442489207853 287.8825040291026 238.1492506969187 274.0190541509189 236.43454439572207 272.58535466199294 234.2515072273276 271.99765637226415 233.94488131850963 272.065926658586 233.70599016717875 277.16451308436854 224.1743552105687 276.7859656550977 222.98015660346155 283.4560757812395 220.39696911802233 288.1810876837625 227.35913253386437 295.322010398178 227.94256072780655 300.40566567406256 221.80058862729973 297.68878226708284 208.45754509003373 309.171560819339 208.57137806576097 306.343767223317 224.78414076901535 323.39212679127917 227.40713113220957 339.7573612799782 221.8066068003927 Z" stroke="#eee" stroke-width="inherit" opacity="1" data-state="TN" data-key="16" fill="#fff" class="hcharts-point"></path><path d="M 474.4773785780227 359.8276237578702 L 461.1551697665015 363.5004654393873 448.55851302575337 372.85231960689674 443.3166159235335 383.83435504446925 434.7980063100558 377.46346136934875 435.1891380493241 377.27438337485967 431.3473103106847 365.13486770214456 434.0010675351984 356.65222657054244 434.2607037026154 355.98109747686726 433.39753444303824 343.7273423739715 438.2376090884174 335.0468278934368 424.80800675876185 324.62585695255666 403.2351435118525 320.4033781534733 404.06267074236825 311.2699328896127 397.29512018769015 305.8162088510147 418.4962654114563 299.83663167953335 432.44321739391563 295.1677831070634 438.94487138643547 304.1169052072146 440.8041504669113 315.3586731815131 446.6276840035354 319.2927600399649 456.5547794063664 316.5577836814178 459.0158747193934 310.4171364687255 459.51683416627975 309.84455955137514 472.96797116279225 315.7303099181639 474.801430197541 330.6255755669559 470.8727862398891 353.8771253051959 474.4773785780227 359.8276237578702 Z" stroke="#eee" stroke-width="inherit" opacity="1" data-state="TN" data-key="30" fill="#fff" class="hcharts-point"></path><path d="M 397.29512018769015 305.8162088510147 L 404.06267074236825 311.2699328896127 403.2351435118525 320.4033781534733 424.80800675876185 324.62585695255666 438.2376090884174 335.0468278934368 433.39753444303824 343.7273423739715 434.2607037026154 355.98109747686726 434.15872321249884 356.2446995052148 415.9092963843607 356.9426547654429 408.46233786429747 353.7855314402486 391.60171840696466 359.7460992313962 391.14003432274467 359.5293941225569 392.3603467131006 339.5392008018536 395.5502344927383 326.43776572859076 389.49374704889954 326.76225770307434 376.47653736939304 319.3888041460977 358.9254302145323 328.70635023057537 349.5745230679448 323.71510400427746 350.5062397641427 323.08548507436115 350.7106100268633 323.1150557652712 352.192912114889 323.09850651760166 353.664889469801 322.16576835961354 355.1534294094754 322.69929290147104 357.72533900561984 320.6551527829963 363.5173592884875 321.02812407519525 372.52575515917596 300.72985465075294 397.29512018769015 305.8162088510147 Z" stroke="#eee" stroke-width="inherit" opacity="1" data-state="TN" data-key="24" fill="#fff" class="hcharts-point"></path><path d="M 224.79821481360233 311.27855085475375 L 229.489188664575 322.2048213386707 240.1939623737701 329.46153762315646 229.78463636531882 349.1439745060222 228.69780862968366 359.7591418537756 232.67919295926333 368.6352493649474 225.7787785303285 373.80365350749054 213.16036772826993 359.7364092449004 192.778921630225 373.95742149255074 182.68748596259059 371.38409094441806 175.34243502103882 361.62418741990206 175.6044617859167 333.0505709824813 180.4191541907582 328.063827915924 183.181446334163 312.20522835555164 176.74807314968132 308.0871870153837 174.15914010647654 302.0226425524092 154.99363633813303 294.5330875791859 159.81247402985977 284.59692274774227 167.90144672936043 282.6994908486539 167.23515041935903 282.2674103073117 177.17928987779757 280.7110268046647 178.98723534905042 286.72884831911426 188.15169728724564 285.29146435638467 197.57138251255157 289.22257100841455 198.3858815635533 301.3371490731978 209.94329148215598 302.7258560983871 212.57533987446885 308.7976668887869 224.79821481360233 311.27855085475375 Z" stroke="#eee" stroke-width="inherit" opacity="1" data-state="TN" data-key="21" fill="#fff" class="hcharts-point"></path><path d="M 323.88810218447816 285.77519118428614 L 324.30358167619227 286.1182438335244 324.43737033195487 287.0744980527707 324.86582781041795 288.1602581909507 326.41797233831835 290.7320152347976 339.12521345128084 291.39377695089263 335.8546022660679 305.8867765720352 340.3031367717577 308.8323420782705 338.2445571871835 320.84955104214066 346.6136739782007 317.889959899105 351.2147532945369 322.606759590861 349.5745230679448 323.71510400427746 358.9254302145323 328.70635023057537 376.47653736939304 319.3888041460977 389.49374704889954 326.76225770307434 395.5502344927383 326.43776572859076 392.3603467131006 339.5392008018536 391.14003432274467 359.5293941225569 390.5989479313364 359.2754416666875 371.0802037176967 350.186869503748 356.8298267681438 353.90408771806034 349.40528915402547 364.15798847174847 349.2676796938982 364.1940360687262 349.0255571523571 364.12955159951326 347.56663845085745 364.69033017101026 346.11421183735763 365.7953192695254 343.9165672113139 365.8207723059443 343.02011176851175 365.75061171145217 343.2608887215154 364.6702264822956 337.07422600665154 358.0927992266988 340.8338788843786 350.4161342748831 331.87962703197695 347.04885387933393 326.57394766558923 354.2800262568376 317.12035217553375 357.32852923110164 304.04928845360405 352.7318796922295 303.4469338829354 345.3025851867203 290.51566057270304 334.71367989548 284.1160257204433 323.42338916112647 287.4547603642289 306.2210136532287 278.63635662701995 298.6968470747785 282.07532131487756 284.0449556918057 290.5356306011974 285.0254722178556 297.9193555819203 279.86557083547757 308.57822406244463 277.193395322844 323.88810218447816 285.77519118428614 Z" stroke="#eee" stroke-width="inherit" opacity="1" data-state="TN" data-key="23" fill="#fff" class="hcharts-point"></path><path d="M 281.10473927824046 204.56624787084127 L 280.43559207995247 206.50870726219924 270.5967591362809 212.7362350445187 273.5703277316327 197.78367148799381 265.6511111060299 193.4945796844996 269.8932701150287 187.35011908605986 269.69309836735687 183.76295948119136 269.0998967506498 181.83912702731214 268.77696773183595 181.12976513888904 269.1748679051125 180.9835810188304 271.94149303721315 173.10542841838253 280.6370338917315 161.9719077878892 277.4879197079458 157.63797134172873 291.48362014562855 143.4515191638899 300.2036014961383 137.63586169691698 300.39805301800567 121.0666811700983 307.38718328120507 118.85650480514809 320.42016517249704 127.7961383756866 325.1468270839073 137.59831056836148 335.71449019910204 146.11413198802654 342.60907309616977 145.6795079237245 351.8082421674601 153.48662147826997 376.6795976513782 155.56354519760524 385.975297703477 177.55459831745918 386.75369359438207 184.781287301494 377.4403704531303 188.54850616133652 366.34973727035265 197.66662629550322 356.441939712635 195.04081525910144 333.77328122058384 182.0553266961911 333.85376767033165 181.2647310250521 331.9047074479642 178.09254355953865 316.62944784458494 181.16626904659006 303.31519826757943 187.64673010137153 297.23160001641213 196.59483515720532 281.10473927824046 204.56624787084127 Z" stroke="#eee" stroke-width="inherit" opacity="1" data-state="TN" data-key="10" fill="#fff" class="hcharts-point"></path><path d="M 326.8417606922091 413.22067317998875 L 326.2916447692297 412.6969915978436 316.5156058012347 411.4120612213222 312.41956034518 407.0898276146566 308.49337796990517 406.01808964984224 305.8067462189257 403.4286257320961 304.15576267529804 402.7012977333982 304.1236017922644 402.67376301060335 304.3102835855601 402.44900528144615 316.84535127899306 402.1641625330157 324.6164083836889 389.2442763073453 334.64447366758435 389.974895046759 335.34447395810207 379.92545801128233 342.39327110138794 374.2429985162288 342.9791040143085 365.9346280055976 343.02011176851175 365.75061171145217 343.9165672113139 365.8207723059443 346.11421183735763 365.7953192695254 347.56663845085745 364.69033017101026 349.0255571523571 364.12955159951326 349.2676796938982 364.1940360687262 348.73507857434515 364.3335665665511 349.03536196489176 369.3755270817082 351.7972861638798 375.7322957136314 349.9464243487091 379.63472451038996 356.8454750367614 388.3216576414452 356.8926536002946 403.1740716346467 341.34480820629295 408.1963528276791 340.6639969423005 414.69209487424007 326.8417606922091 413.22067317998875 Z" stroke="#eee" stroke-width="inherit" opacity="1" data-state="TN" data-key="32" fill="#fff" class="hcharts-point"></path><path d="M 326.2916447692297 412.6969915978436 L 326.64205813708986 413.0305617188014 324.987531510408 413.0517439065014 323.34998708513183 413.1979332192511 319.2209449765613 415.627915524929 321.4773557170497 424.112847668517 321.43719836904154 424.1411777826346 312.61999529029373 428.61918582828366 305.8950674128497 447.82317591954006 320.1314959354612 445.96394534102365 319.4891739383872 460.62391938053275 323.34759092747794 470.2487447020556 322.31404229202235 470.09226211084973 312.2336891305494 471.23244794196694 295.6631746497151 489.42318400908164 288.4886704558511 484.54783158277786 280.0305799896646 485.2087226368983 275.814415205612 480.2847574429508 260.0942676930837 477.3280936971106 255.63084603506312 471.082205600685 258.67520277150265 463.04194300671276 268.94122228261165 463.19945727621234 274.70419669861036 456.87393360771904 279.182119967236 435.46588137981104 273.11587600076274 432.78376137613327 291.00764903154743 416.0374437072374 299.95475380538 410.46647972807534 303.61650619523266 403.28432121973964 304.1236017922644 402.67376301060335 304.15576267529804 402.7012977333982 305.8067462189257 403.4286257320961 308.49337796990517 406.01808964984224 312.41956034518 407.0898276146566 316.5156058012347 411.4120612213222 326.2916447692297 412.6969915978436 Z" stroke="#eee" stroke-width="inherit" opacity="1" data-state="TN" data-key="34" fill="#fff" class="hcharts-point"></path><path d="M 280.70323088202554 205.73173437562232 L 280.7067627375528 205.95248487308348 280.6197534105063 209.2657335652537 276.3446628171522 221.58816924822779 277.16451308436854 224.1743552105687 272.065926658586 233.70599016717875 271.86983615254235 234.3921646355071 265.9193547642337 236.10363842763303 264.59332278471277 249.5327251948058 257.67275167517084 268.8111466841037 243.9441184361871 273.87192460944607 240.85034077129396 279.2962730645659 225.93817574787005 273.72655841394777 225.74921276665034 273.08447035342067 230.57172668667687 258.86086040067477 223.28136923922307 251.83442665704862 213.30785547551855 247.72026115641054 226.79934644992034 237.86965487518884 226.45217785958243 230.0968353037799 240.33393683471803 228.87239985755988 244.3167301517665 224.3347830443783 241.61759373765383 202.22959050385708 249.58039831105486 182.1424497230353 268.6949552050336 181.1598971391273 268.77696773183595 181.12976513888904 269.0998967506498 181.83912702731214 269.69309836735687 183.76295948119136 269.8932701150287 187.35011908605986 265.6511111060299 193.4945796844996 273.5703277316327 197.78367148799381 270.5967591362809 212.7362350445187 280.43559207995247 206.50870726219924 280.70323088202554 205.73173437562232 Z" stroke="#eee" stroke-width="inherit" opacity="1" data-state="TN" data-key="18" fill="#fff" class="hcharts-point"></path><path d="M 340.1521827605906 221.91506555573383 L 339.7573612799782 221.8066068003927 323.39212679127917 227.40713113220957 306.343767223317 224.78414076901535 309.171560819339 208.57137806576097 297.68878226708284 208.45754509003373 300.40566567406256 221.80058862729973 295.322010398178 227.94256072780655 288.1810876837625 227.35913253386437 283.4560757812395 220.39696911802233 276.7859656550977 222.98015660346155 276.3446628171522 221.58816924822779 280.6197534105063 209.2657335652537 280.7067627375528 205.95248487308348 280.70323088202554 205.73173437562232 281.10473927824046 204.56624787084127 297.23160001641213 196.59483515720532 303.31519826757943 187.64673010137153 316.62944784458494 181.16626904659006 331.9047074479642 178.09254355953865 333.85376767033165 181.2647310250521 333.8336106345771 181.46272255444273 320.2293622613164 197.93425674359239 331.6661711349292 215.8659277233077 340.1521827605906 221.91506555573383 Z" stroke="#eee" stroke-width="inherit" opacity="1" data-state="TN" data-key="15" fill="#fff" class="hcharts-point"></path></g></g><g data-z-index="0.1" transform="translate(10,10) scale(1 1)" style="cursor:pointer;" clip-path="none" opacity="0.2" class="hcharts-markers hcharts-series-1 hcharts-mapline-series hcharts-tracker hcharts-series-inactive"></g><g id="Nummern" xmlns="http://www.w3.org/2000/svg" class="h-numbers"><text transform="matrix(1 0 0 1 541.2522 48.6562)">1</text><text transform="matrix(1 0 0 1 581.8635 62.529300000000006)">2</text><text transform="matrix(1 0 0 1 567.0393 91.9463)">3</text><text transform="matrix(1 0 0 1 579.9602 74.4111)">4</text><text transform="matrix(1 0 0 1 541.7522 86.1045)">5</text><text transform="matrix(1 0 0 1 531.7493 134.793)">6</text><text transform="matrix(1 0 0 1 474.2522 77.3467)">7</text><text transform="matrix(1 0 0 1 397.2522 99.0488)">8</text><text transform="matrix(1 0 0 1 294.2498 119.30959999999999)">9</text><text transform="matrix(1 0 0 1 300.6067 187.5674)">10</text><text transform="matrix(1 0 0 1 412.2522 162.5137)">11</text><text transform="matrix(1 0 0 1 467.6077 151.793)">12</text><text transform="matrix(1 0 0 1 455.1077 207.4971)">13</text><text transform="matrix(1 0 0 1 373.6077 229.42380000000003)">14</text><text transform="matrix(1 0 0 1 310.6067 217.2588)">15</text><text transform="matrix(1 0 0 1 313.1067 277.4238)">16</text><text transform="matrix(1 0 0 1 245.6067 329.1562)">17</text><text transform="matrix(1 0 0 1 237.5691 255)">18</text><text transform="matrix(1 0 0 1 169.6067 262.1963)">19</text><text transform="matrix(1 0 0 1 217.1067 296.4014)">20</text><text transform="matrix(1 0 0 1 197.0525 355.167)">21</text><text transform="matrix(1 0 0 1 272.0525 379.9355)">22</text><text transform="matrix(1 0 0 1 310.5525 341.9971)">23</text><text transform="matrix(1 0 0 1 411.053 353.2588)">24</text><text transform="matrix(1 0 0 1 370.553 300.9629)">25</text><text transform="matrix(1 0 0 1 484.553 225.42380000000003)">26</text><text transform="matrix(1 0 0 1 445.053 280.2529)">27</text><text transform="matrix(1 0 0 1 488.553 290.9629)">28</text><text transform="matrix(1 0 0 1 491.9993 361.9971)">29</text><text transform="matrix(1 0 0 1 447.053 366.9971)">30</text><text transform="matrix(1 0 0 1 366.553 432.5781)">31</text><text transform="matrix(1 0 0 1 347.5696 412.5781)">32</text><text transform="matrix(1 0 0 1 257.5696 433.2842)">33</text><text transform="matrix(1 0 0 1 295.06960000000004 470.043)">34</text><text transform="matrix(1 0 0 1 355.0706 490.7471)">35</text><text transform="matrix(1 0 0 1 307.06960000000004 541.71)">36</text><text transform="matrix(1 0 0 1 247.0696 536.543)">37</text><text transform="matrix(1 0 0 1 273.0696 590.1914)">38</text><text transform="matrix(1 0 0 1 243.0696 610.1914)">39</text></g></g></svg>